<svg width="105" height="104" viewBox="0 0 105 104" fill="none" xmlns="http://www.w3.org/2000/svg">
<mask id="mask0_1_74" style="mask-type:luminance" maskUnits="userSpaceOnUse" x="11" y="57" width="24" height="34">
<path d="M11.4896 57H34.6667V90.8438H11.4896V57Z" fill="white"/>
</mask>
<g mask="url(#mask0_1_74)">
<path d="M31.4063 75.4167C30.5313 74.8333 29.5417 74.474 28.5104 74.3438C30.4011 72.7083 31.8698 70.4167 31.8698 67.9167C31.8698 59.4948 27.0208 57.724 22.9531 57.724C18.8854 57.724 14.0365 59.4948 14.0365 67.9167C14.0365 70.4167 15.5052 72.7083 17.3958 74.3438C16.3646 74.474 15.3698 74.8333 14.4948 75.4167C12.6146 76.6719 11.4896 78.7708 11.4896 81.0365V89.5677C11.4896 90.2708 12.0573 90.8438 12.7604 90.8438H33.1406C33.849 90.8438 34.4167 90.2708 34.4167 89.5677V81.0365C34.4167 78.7708 33.2917 76.6719 31.4063 75.4167ZM22.9531 78.9844L24.0052 81.6146L22.9531 82.6719L21.9011 81.6198L22.9531 78.9844ZM16.7604 69.1198C18.9427 68.9427 22.8802 68.2813 24.7083 65.8698L29.2604 68.599C28.75 71.7188 24.9063 74.2813 22.9531 74.2813C21.1094 74.2813 17.5833 72 16.7604 69.1198ZM22.9531 60.2708C26.5677 60.2708 28.5521 61.9792 29.125 65.5469L24.8802 63C24.5521 62.8021 24.1458 62.7656 23.7865 62.901C23.4219 63.0313 23.1406 63.3229 23.0208 63.6927C22.375 65.625 18.8958 66.3542 16.6563 66.5677C16.9948 62.2969 19.0104 60.2708 22.9531 60.2708ZM31.8698 88.2917H14.0365V81.0365C14.0365 79.625 14.7344 78.3177 15.9115 77.5365C16.6042 77.0729 17.4115 76.8281 18.2448 76.8281H21.0729L19.224 81.4531C19.0313 81.9271 19.1458 82.4635 19.5052 82.8281L22.0521 85.375C22.3021 85.6198 22.625 85.7448 22.9531 85.7448C23.2761 85.7448 23.6042 85.6198 23.8542 85.375L26.4011 82.8281C26.7604 82.4635 26.8698 81.9271 26.6823 81.4531L24.8333 76.8281H27.6615C28.4948 76.8281 29.3021 77.0729 29.9948 77.5365C31.1667 78.3177 31.8698 79.625 31.8698 81.0365V88.2917Z" fill="white"/>
</g>
<mask id="mask1_1_74" style="mask-type:luminance" maskUnits="userSpaceOnUse" x="37" y="57" width="25" height="34">
<path d="M37.3333 57H61.3333V90.8438H37.3333V57Z" fill="white"/>
</mask>
<g mask="url(#mask1_1_74)">
<path d="M58.1563 75.4167C57.2813 74.8333 56.2917 74.474 55.2604 74.3438C57.1511 72.7083 58.6146 70.4167 58.6146 67.9167C58.6146 59.4948 53.7656 57.724 49.7031 57.724C45.6354 57.724 40.7865 59.4948 40.7865 67.9167C40.7865 70.4167 42.2552 72.7083 44.1458 74.3438C43.1094 74.474 42.1198 74.8333 41.2448 75.4167C39.3646 76.6719 38.2396 78.7708 38.2396 81.0365V89.5677C38.2396 90.2708 38.8073 90.8438 39.5104 90.8438H59.8906C60.5938 90.8438 61.1667 90.2708 61.1667 89.5677V81.0365C61.1667 78.7708 60.0417 76.6719 58.1563 75.4167ZM49.7031 78.9844L50.7552 81.6146L49.7031 82.6719L48.6511 81.6198L49.7031 78.9844ZM43.5104 69.1198C45.6875 68.9427 49.625 68.2813 51.4583 65.8698L56.0104 68.599C55.5 71.7188 51.6563 74.2813 49.7031 74.2813C47.8542 74.2813 44.3333 72 43.5104 69.1198ZM49.7031 60.2708C53.3177 60.2708 55.3021 61.9792 55.875 65.5469L51.6302 63C51.2969 62.8021 50.8958 62.7656 50.5365 62.901C50.1719 63.0313 49.8906 63.3229 49.7656 63.6927C49.125 65.625 45.6406 66.3542 43.4011 66.5677C43.7448 62.2969 45.7552 60.2708 49.7031 60.2708ZM58.6146 88.2917H40.7865V81.0365C40.7865 79.625 41.4844 78.3177 42.6563 77.5365C43.349 77.0729 44.1563 76.8281 44.9896 76.8281H47.8177L45.9688 81.4531C45.7813 81.9271 45.8906 82.4635 46.2552 82.8281L48.8021 85.375C49.0469 85.6198 49.375 85.7448 49.7031 85.7448C50.0261 85.7448 50.3542 85.6198 50.599 85.375L53.1511 82.8281C53.5104 82.4635 53.6198 81.9271 53.4323 81.4531L51.5833 76.8281H54.4115C55.2448 76.8281 56.0521 77.0729 56.7448 77.5365C57.9167 78.3177 58.6146 79.625 58.6146 81.0365V88.2917Z" fill="white"/>
</g>
<mask id="mask2_1_74" style="mask-type:luminance" maskUnits="userSpaceOnUse" x="64" y="57" width="24" height="34">
<path d="M64 57H87.9115V90.8438H64V57Z" fill="white"/>
</mask>
<g mask="url(#mask2_1_74)">
<path d="M84.9063 75.4167C84.0313 74.8333 83.0417 74.474 82.0104 74.3438C83.8958 72.7083 85.3646 70.4167 85.3646 67.9167C85.3646 59.4948 80.5156 57.724 76.4479 57.724C72.3802 57.724 67.5313 59.4948 67.5313 67.9167C67.5313 70.4167 69 72.7083 70.8906 74.3438C69.8594 74.474 68.8698 74.8333 67.9948 75.4167C66.1094 76.6719 64.9844 78.7708 64.9844 81.0365V89.5677C64.9844 90.2708 65.5573 90.8438 66.2604 90.8438H86.6406C87.3437 90.8438 87.9115 90.2708 87.9115 89.5677V81.0365C87.9115 78.7708 86.7865 76.6719 84.9063 75.4167ZM76.4479 78.9844L77.5 81.6146L76.4479 82.6719L75.3958 81.6198L76.4479 78.9844ZM70.2552 69.1198C72.4375 68.9427 76.375 68.2813 78.2083 65.8698L82.7604 68.599C82.25 71.7188 78.4063 74.2813 76.4479 74.2813C74.6042 74.2813 71.0781 72 70.2552 69.1198ZM76.4479 60.2708C80.0625 60.2708 82.0521 61.9792 82.625 65.5469L78.3802 63C78.0469 62.8021 77.6458 62.7656 77.2813 62.901C76.9219 63.0313 76.6354 63.3229 76.5156 63.6927C75.8698 65.625 72.3906 66.3542 70.151 66.5677C70.4896 62.2969 72.5052 60.2708 76.4479 60.2708ZM85.3646 88.2917H67.5313V81.0365C67.5313 79.625 68.2344 78.3177 69.4063 77.5365C70.099 77.0729 70.9063 76.8281 71.7396 76.8281H74.5677L72.7188 81.4531C72.5313 81.9271 72.6406 82.4635 73 82.8281L75.5469 85.375C75.7969 85.6198 76.125 85.7448 76.4479 85.7448C76.776 85.7448 77.099 85.6198 77.349 85.375L79.8958 82.8281C80.2604 82.4635 80.3698 81.9271 80.1823 81.4531L78.3281 76.8281H81.1563C81.9896 76.8281 82.7969 77.0729 83.4896 77.5365C84.6667 78.3177 85.3646 79.625 85.3646 81.0365V88.2917Z" fill="white"/>
</g>
<path d="M35.6875 55.1771H71.3542V52.6302H70.0781V36.0729C70.0781 35.3646 69.5104 34.7969 68.8073 34.7969H57.3437V30.974C57.3437 30.2708 56.776 29.7031 56.0677 29.7031H48.3333C47.8646 28.901 47.2917 28.151 46.6094 27.4844C44.6146 25.5469 42 24.5469 39.1979 24.6094C33.75 24.776 29.3229 29.5156 29.3229 35.1719C29.3229 38.5 30.2656 41.75 32.0521 44.5573L37.1927 52.6302H35.6875V55.1771ZM61.1667 52.6302V48.8073H63.7135V52.6302H61.1667ZM67.5312 37.3437V38.6198H64.9844V41.1667H67.5312V42.4375H64.9844V44.9844H67.5312V52.6302H66.2604V47.5365C66.2604 46.8281 65.6927 46.2604 64.9844 46.2604H59.8906C59.1875 46.2604 58.6146 46.8281 58.6146 47.5365V52.6302H57.3437V44.9844H59.8906V42.4375H57.3437V41.1667H59.8906V38.6198H57.3437V37.3437H67.5312ZM54.7969 32.25V52.6302H45.8802V46.2656L46.9687 44.5573C48.7552 41.75 49.7031 38.5 49.7031 35.1719V34.7969C49.7031 33.9219 49.5781 33.0729 49.3698 32.25H54.7969ZM31.8698 35.1719C31.8698 30.875 35.1927 27.2812 39.276 27.1562C39.3542 27.1562 39.4323 27.1562 39.5104 27.1562C41.5104 27.1562 43.3958 27.9167 44.8333 29.3125C46.3281 30.7656 47.151 32.7135 47.151 34.7969V35.1719C47.151 38.0156 46.3437 40.7917 44.8177 43.1927L39.5104 51.5312L34.2031 43.1927C32.6771 40.7917 31.8698 38.0156 31.8698 35.1719ZM43.3333 50.2708V52.6302H41.8333L43.3333 50.2708Z" fill="white"/>
<path d="M50.974 33.5208H53.5208V36.0729H50.974V33.5208Z" fill="white"/>
<path d="M61.1667 38.6198H63.7135V41.1667H61.1667V38.6198Z" fill="white"/>
<path d="M61.1667 42.4375H63.7135V44.9844H61.1667V42.4375Z" fill="white"/>
<path d="M50.974 37.3438H53.5208V39.8906H50.974V37.3438Z" fill="white"/>
<path d="M50.974 41.1667H53.5208V43.7135H50.974V41.1667Z" fill="white"/>
<path d="M47.151 44.9844H49.7031V47.5365H47.151V44.9844Z" fill="white"/>
<path d="M50.974 44.9844H53.5208V47.5365H50.974V44.9844Z" fill="white"/>
<path d="M47.151 48.8073H49.7031V51.3542H47.151V48.8073Z" fill="white"/>
<path d="M50.974 48.8073H53.5208V51.3542H50.974V48.8073Z" fill="white"/>
<path d="M78.3698 36.8854C78.6458 37.6354 78.8958 38.4063 79.1146 39.1667L81.5625 38.4688C81.3281 37.6458 81.0573 36.8125 80.7552 36L78.3698 36.8854Z" fill="white"/>
<mask id="mask3_1_74" style="mask-type:luminance" maskUnits="userSpaceOnUse" x="52" y="14" width="6" height="5">
<path d="M52 14.4167H57.3333V18.3333H52V14.4167Z" fill="white"/>
</mask>
<g mask="url(#mask3_1_74)">
<path d="M53.5573 14.6406L53.2656 17.1719C54.0469 17.2604 54.849 17.3854 55.6354 17.5417L56.125 15.0365C55.2708 14.8698 54.4063 14.7396 53.5573 14.6406Z" fill="white"/>
</g>
<mask id="mask4_1_74" style="mask-type:luminance" maskUnits="userSpaceOnUse" x="57" y="14" width="5" height="6">
<path d="M57.3333 14.4167H61.3333V19.6667H57.3333V14.4167Z" fill="white"/>
</mask>
<g mask="url(#mask4_1_74)">
<path d="M58.651 15.6406L57.9688 18.0938C58.7344 18.3073 59.5 18.5573 60.25 18.8333L61.125 16.4427C60.3177 16.1406 59.4844 15.875 58.651 15.6406Z" fill="white"/>
</g>
<mask id="mask5_1_74" style="mask-type:luminance" maskUnits="userSpaceOnUse" x="42" y="14" width="5" height="5">
<path d="M42.6667 14.4167H46.6667V18.3333H42.6667V14.4167Z" fill="white"/>
</mask>
<g mask="url(#mask5_1_74)">
<path d="M45.7865 14.6458C44.9375 14.75 44.0729 14.8854 43.224 15.0521L43.7136 17.5521C44.5 17.3958 45.2969 17.2708 46.0833 17.1771L45.7865 14.6458Z" fill="white"/>
</g>
<mask id="mask6_1_74" style="mask-type:luminance" maskUnits="userSpaceOnUse" x="48" y="14" width="4" height="3">
<path d="M48 14.4167H52V17H48V14.4167Z" fill="white"/>
</mask>
<g mask="url(#mask6_1_74)">
<path d="M50.974 14.4427C50.1146 14.4063 49.2396 14.4115 48.375 14.4427L48.474 16.9896C49.2656 16.9583 50.0781 16.9583 50.875 16.9896L50.974 14.4427Z" fill="white"/>
</g>
<path d="M63.526 17.4323L62.4635 19.7448C63.1823 20.0781 63.9062 20.4479 64.6042 20.8333L65.8437 18.6094C65.0885 18.1875 64.3125 17.7917 63.526 17.4323Z" fill="white"/>
<path d="M28.9531 25.0833L27.2239 23.2135C26.5885 23.7969 25.9739 24.4167 25.3854 25.0469L27.2552 26.776C27.7969 26.1927 28.3698 25.625 28.9531 25.0833Z" fill="white"/>
<path d="M68.0625 19.9688L66.651 22.0885C67.3073 22.526 67.9583 23 68.5885 23.4948L70.1667 21.4948C69.4792 20.9583 68.776 20.4427 68.0625 19.9688Z" fill="white"/>
<path d="M82.5833 43.5625C82.4792 42.7031 82.3438 41.8385 82.1719 40.9948L79.6771 41.4948C79.8333 42.276 79.9583 43.0729 80.0521 43.8646L82.5833 43.5625Z" fill="white"/>
<path d="M22.1667 29.125L24.2864 30.5417C24.7292 29.8802 25.2031 29.2292 25.6979 28.6042L23.6979 27.026C23.1614 27.7031 22.651 28.4115 22.1667 29.125Z" fill="white"/>
<path d="M17.8281 38.526L20.276 39.2188C20.4896 38.4583 20.7396 37.6875 21.0208 36.9375L18.6302 36.0521C18.3281 36.8698 18.0573 37.7031 17.8281 38.526Z" fill="white"/>
<path d="M19.625 33.651L21.9375 34.724C22.276 33.9948 22.6406 33.276 23.026 32.5885L20.8073 31.3385C20.3906 32.0833 19.9896 32.8646 19.625 33.651Z" fill="white"/>
<mask id="mask7_1_74" style="mask-type:luminance" maskUnits="userSpaceOnUse" x="37" y="14" width="6" height="6">
<path d="M37.3333 14.4167H42.6667V19.6667H37.3333V14.4167Z" fill="white"/>
</mask>
<g mask="url(#mask7_1_74)">
<path d="M40.6927 15.6615C39.8542 15.8958 39.0261 16.1667 38.224 16.4636L39.1042 18.849C39.8438 18.5781 40.6146 18.3281 41.3854 18.1094L40.6927 15.6615Z" fill="white"/>
</g>
<path d="M76.349 32.5417C76.7396 33.2344 77.1094 33.9531 77.4479 34.6771L79.7552 33.6042C79.3906 32.8177 78.9896 32.0417 78.5677 31.2917L76.349 32.5417Z" fill="white"/>
<path d="M70.4167 25.0521C71.0052 25.599 71.5781 26.1667 72.1146 26.7448L73.9844 25.0156C73.401 24.3906 72.7812 23.7708 72.1458 23.1823L70.4167 25.0521Z" fill="white"/>
<path d="M16.8125 43.6198L19.3438 43.9167C19.4323 43.1302 19.5625 42.3333 19.7188 41.5469L17.2188 41.0573C17.0469 41.9063 16.9115 42.7656 16.8125 43.6198Z" fill="white"/>
<path d="M32.7187 22.1146L31.2969 20C30.5781 20.4844 29.8698 20.9948 29.1979 21.526L30.776 23.526C31.3958 23.0365 32.0469 22.5625 32.7187 22.1146Z" fill="white"/>
<path d="M73.6771 28.5677C74.1667 29.1875 74.6458 29.8385 75.0938 30.5052L77.2031 29.0833C76.7188 28.3646 76.2031 27.6563 75.6719 26.9844L73.6771 28.5677Z" fill="white"/>
<path d="M35.8229 17.4583C35.0417 17.8177 34.2656 18.2135 33.5104 18.6406L34.7604 20.8594C35.4531 20.4688 36.1719 20.099 36.8958 19.7656L35.8229 17.4583Z" fill="white"/>
<path d="M44.6042 34.7969C44.6042 31.9896 42.3229 29.7031 39.5104 29.7031C36.7031 29.7031 34.4167 31.9896 34.4167 34.7969C34.4167 37.6094 36.7031 39.8906 39.5104 39.8906C42.3229 39.8906 44.6042 37.6094 44.6042 34.7969ZM36.9635 34.7969C36.9635 33.3906 38.1042 32.25 39.5104 32.25C40.9167 32.25 42.0573 33.3906 42.0573 34.7969C42.0573 36.2031 40.9167 37.3438 39.5104 37.3438C38.1042 37.3438 36.9635 36.2031 36.9635 34.7969Z" fill="white"/>
</svg>
