<svg width="113" height="107" viewBox="0 0 113 107" fill="none"
    xmlns="http://www.w3.org/2000/svg">
    <mask id="mask0_3_196" style="mask-type:luminance" maskUnits="userSpaceOnUse" x="18" y="18" width="49" height="49">
        <path d="M18 18H66.6354V66.4323H18V18Z" fill="white"/>
    </mask>
    <g mask="url(#mask0_3_196)">
        <path d="M65.0833 18.2864L59.6093 23.7604H41.6718C41.4635 23.7604 41.25 23.8437 41.1093 24.0052L18.2448 46.8489C17.9218 47.1719 17.9218 47.6719 18.2448 48L36.5208 66.2708C36.6823 66.4323 36.8906 66.5156 37.0833 66.5156C37.276 66.5156 37.5052 66.4323 37.651 66.2708L60.4948 43.4271C60.6406 43.2812 60.7395 43.0677 60.7395 42.8594V24.9062L66.2135 19.4323C66.5364 19.1094 66.5364 18.6094 66.2135 18.2864C65.8906 17.9635 65.4062 17.9792 65.0833 18.2864ZM59.1406 42.5208L37.0989 64.5573L19.9583 47.4167L41.9948 25.375H57.9895L53.0312 30.3385C51.4635 29.3021 49.3333 29.4635 47.9427 30.8542C47.1823 31.6146 46.7604 32.6302 46.7604 33.7135C46.7604 34.7969 47.1823 35.7969 47.9427 36.5729C48.7343 37.3646 49.7656 37.7552 50.802 37.7552C51.8333 37.7552 52.8698 37.3646 53.6614 36.5729C54.4218 35.8125 54.8385 34.7969 54.8385 33.7135C54.8385 32.9062 54.5989 32.1458 54.177 31.4844L59.1406 26.526V42.5208ZM53.2239 33.7135C53.2239 34.3594 52.9687 34.9739 52.5156 35.4271C51.5781 36.3646 50.026 36.3646 49.0885 35.4271C48.6354 34.9739 48.3802 34.3594 48.3802 33.7135C48.3802 33.0677 48.6354 32.4531 49.0885 32C49.5573 31.5312 50.1875 31.2917 50.802 31.2917C51.4166 31.2917 52.0468 31.5312 52.5156 32C52.9843 32.4531 53.2239 33.0677 53.2239 33.7135Z" fill="white"/>
    </g>
    <mask id="mask1_3_196" style="mask-type:luminance" maskUnits="userSpaceOnUse" x="64" y="66" width="13" height="11">
        <path d="M64.1875 66H76.1875V76.6667H64.1875V66Z" fill="white"/>
    </mask>
    <g mask="url(#mask1_3_196)">
        <mask id="mask2_3_196" style="mask-type:luminance" maskUnits="userSpaceOnUse" x="56" y="42" width="42" height="51">
            <path d="M58.8907 42.7396L97.5625 44.375L95.5105 92.9688L56.8334 91.3281L58.8907 42.7396Z" fill="white"/>
        </mask>
        <g mask="url(#mask2_3_196)">
            <mask id="mask3_3_196" style="mask-type:luminance" maskUnits="userSpaceOnUse" x="56" y="42" width="42" height="51">
                <path d="M58.8907 42.7396L97.5625 44.375L95.5105 92.9688L56.8334 91.3281L58.8907 42.7396Z" fill="white"/>
            </mask>
            <g mask="url(#mask3_3_196)">
                <path d="M70.4375 66.3698L69.2552 70.0313L65.1146 69.8594L68.6094 72.3698L66.9532 75.7709L70.1407 73.3802L73.1042 76.0313L71.7396 72.5052L75.4375 70.2969L71.3177 70.125L70.4375 66.3698Z" fill="white"/>
            </g>
        </g>
    </g>
    <mask id="mask4_3_196" style="mask-type:luminance" maskUnits="userSpaceOnUse" x="58" y="42" width="25" height="10">
        <path d="M58.8541 42H82.8541V51.3333H58.8541V42Z" fill="white"/>
    </mask>
    <g mask="url(#mask4_3_196)">
        <mask id="mask5_3_196" style="mask-type:luminance" maskUnits="userSpaceOnUse" x="56" y="42" width="42" height="51">
            <path d="M58.8906 42.7396L97.5625 44.375L95.5104 92.9688L56.8333 91.3281L58.8906 42.7396Z" fill="white"/>
        </mask>
        <g mask="url(#mask5_3_196)">
            <mask id="mask6_3_196" style="mask-type:luminance" maskUnits="userSpaceOnUse" x="56" y="42" width="42" height="51">
                <path d="M58.8906 42.7396L97.5625 44.375L95.5104 92.9688L56.8333 91.3281L58.8906 42.7396Z" fill="white"/>
            </mask>
            <g mask="url(#mask6_3_196)">
                <path d="M71.3646 46.625C73.3958 46.7135 75.0313 48.224 75.3385 50.151L82.6354 50.4583L76.1979 43.474L66.8177 43.0781L59.8125 49.4948L67.1094 49.8021C67.5833 47.9063 69.3385 46.5417 71.3646 46.625Z" fill="white"/>
            </g>
        </g>
    </g>
    <mask id="mask7_3_196" style="mask-type:luminance" maskUnits="userSpaceOnUse" x="60" y="62" width="21" height="20">
        <path d="M60.1875 62H80.1875V82H60.1875V62Z" fill="white"/>
    </mask>
    <g mask="url(#mask7_3_196)">
        <mask id="mask8_3_196" style="mask-type:luminance" maskUnits="userSpaceOnUse" x="56" y="42" width="42" height="51">
            <path d="M58.8907 42.7396L97.5625 44.375L95.5105 92.9688L56.8334 91.3281L58.8907 42.7396Z" fill="white"/>
        </mask>
        <g mask="url(#mask8_3_196)">
            <mask id="mask9_3_196" style="mask-type:luminance" maskUnits="userSpaceOnUse" x="56" y="42" width="42" height="51">
                <path d="M58.8907 42.7396L97.5625 44.375L95.5105 92.9688L56.8334 91.3281L58.8907 42.7396Z" fill="white"/>
            </mask>
            <g mask="url(#mask9_3_196)">
                <path d="M78.0209 70.7135L73.823 73.2188L75.5261 77.6302L73.7292 78.8438L70.0469 75.5521L66.0938 78.5208L64.4115 77.1563L66.4792 72.9063L62.5105 70.0521L63.3855 68.1094L68.0469 68.3021L69.3803 64.1667L71.6667 64.2604L72.6667 68.5L77.3073 68.6979L78.0209 70.7135ZM70.6928 62.5417C65.599 62.3281 61.2761 66.2865 61.0626 71.3646C60.849 76.4479 64.8178 80.7604 69.9115 80.974C75.0105 81.1875 79.3282 77.2292 79.5417 72.151C79.7553 67.0677 75.7865 62.7604 70.6928 62.5417Z" fill="white"/>
            </g>
        </g>
    </g>
    <mask id="mask10_3_196" style="mask-type:luminance" maskUnits="userSpaceOnUse" x="56" y="88" width="27" height="5">
        <path d="M56.1875 88.6667H82.8542V92.6667H56.1875V88.6667Z" fill="white"/>
    </mask>
    <g mask="url(#mask10_3_196)">
        <mask id="mask11_3_196" style="mask-type:luminance" maskUnits="userSpaceOnUse" x="56" y="42" width="42" height="51">
            <path d="M58.8907 42.7396L97.5625 44.375L95.5105 92.9687L56.8334 91.3281L58.8907 42.7396Z" fill="white"/>
        </mask>
        <g mask="url(#mask11_3_196)">
            <mask id="mask12_3_196" style="mask-type:luminance" maskUnits="userSpaceOnUse" x="56" y="42" width="42" height="51">
                <path d="M58.8907 42.7396L97.5625 44.375L95.5105 92.9687L56.8334 91.3281L58.8907 42.7396Z" fill="white"/>
            </mask>
            <g mask="url(#mask12_3_196)">
                <path d="M56.9219 89.6562L56.8542 91.3333L82.0521 92.3958L82.1198 90.7239L56.9219 89.6562Z" fill="white"/>
            </g>
        </g>
    </g>
    <mask id="mask13_3_196" style="mask-type:luminance" maskUnits="userSpaceOnUse" x="56" y="43" width="42" height="47">
        <path d="M56.1875 43.3333H97.5208V90H56.1875V43.3333Z" fill="white"/>
    </mask>
    <g mask="url(#mask13_3_196)">
        <mask id="mask14_3_196" style="mask-type:luminance" maskUnits="userSpaceOnUse" x="56" y="42" width="42" height="51">
            <path d="M58.8907 42.7396L97.5625 44.375L95.5105 92.9687L56.8334 91.3281L58.8907 42.7396Z" fill="white"/>
        </mask>
        <g mask="url(#mask14_3_196)">
            <mask id="mask15_3_196" style="mask-type:luminance" maskUnits="userSpaceOnUse" x="56" y="42" width="42" height="51">
                <path d="M58.8907 42.7396L97.5625 44.375L95.5105 92.9687L56.8334 91.3281L58.8907 42.7396Z" fill="white"/>
            </mask>
            <g mask="url(#mask15_3_196)">
                <path d="M69.8438 82.651C63.8229 82.3958 59.1302 77.3021 59.3854 71.2969C59.6354 65.2916 64.7448 60.6146 70.7656 60.8698C76.7865 61.1198 81.474 66.2135 81.224 72.2187C80.9688 78.2239 75.8646 82.9062 69.8438 82.651ZM80.8698 80.5989L79.1875 80.526L79.2604 78.8489L80.9375 78.9219L80.8698 80.5989ZM80.724 83.9479L79.0469 83.8802L79.1146 82.2031L80.7969 82.2708L80.724 83.9479ZM80.5834 87.3021L78.9063 87.2291L78.974 85.5521L80.6563 85.625L80.5834 87.3021ZM59.8802 59.5677L61.5573 59.6406L61.4896 61.3125L59.8073 61.2448L59.8802 59.5677ZM60.0209 56.2187L61.7031 56.2864L61.6302 57.9635L59.9479 57.8906L60.0209 56.2187ZM60.1615 52.8646L61.8438 52.9375L61.7709 54.6094L60.0938 54.5416L60.1615 52.8646ZM84.0729 44.6458C82.5781 44.5833 81.1198 44.6458 79.7188 44.8125L81.1406 46.3646C82.0781 46.2969 83.0313 46.2812 84 46.3229C90.9323 46.6146 95.6459 49.4635 95.5469 51.8437C95.4479 54.2239 90.5052 56.6666 83.5781 56.375L83.7552 52.1875L75.2656 51.8281C75.0834 52.5833 74.6771 53.2552 74.1406 53.7864C72.7604 52.8646 71.9896 51.8177 72.0313 50.8489C72.0573 50.1302 72.4948 49.5208 72.9792 49.0625C72.5677 48.6354 72.0052 48.3594 71.3854 48.3125C70.7448 49.0729 70.3854 49.9062 70.349 50.776C70.2865 52.2344 71.125 53.5989 72.599 54.75C72.1042 54.9323 71.5677 55.026 71.0104 55.0052C68.9844 54.9166 67.349 53.4062 67.0365 51.4791L58.5521 51.1198L56.9948 87.9791L82.1927 89.0469L83.5052 58.0469C91.0417 58.3698 97.0677 55.6719 97.2292 51.9166C97.3854 48.1614 91.6094 44.9635 84.0729 44.6458Z" fill="white"/>
            </g>
        </g>
    </g>
</svg>
