<svg xmlns="http://www.w3.org/2000/svg" xmlns:xlink="http://www.w3.org/1999/xlink" width="165" zoomAndPan="magnify" viewBox="0 0 123.75 123.000003" height="164" preserveAspectRatio="xMidYMid meet" version="1.0"><defs><clipPath id="548bd9358a"><path d="M 0.375 0 L 123.128906 0 L 123.128906 122.007812 L 0.375 122.007812 Z M 0.375 0 " clip-rule="nonzero"/></clipPath><clipPath id="8e43c7d97e"><path d="M 38.367188 37.632812 L 85.332031 37.632812 L 85.332031 84.59375 L 38.367188 84.59375 Z M 38.367188 37.632812 " clip-rule="nonzero"/></clipPath><clipPath id="0c5b35a791"><path d="M 52.953125 52.101562 L 70.847656 52.101562 L 70.847656 70 L 52.953125 70 Z M 52.953125 52.101562 " clip-rule="nonzero"/></clipPath></defs><g clip-path="url(#548bd9358a)"><path fill="#ffffff" d="M 0.375 0 L 123.375 0 L 123.375 129.710938 L 0.375 129.710938 Z M 0.375 0 " fill-opacity="1" fill-rule="nonzero"/><path fill="#ffffff" d="M 0.375 0 L 123.375 0 L 123.375 122.253906 L 0.375 122.253906 Z M 0.375 0 " fill-opacity="1" fill-rule="nonzero"/></g><g clip-path="url(#8e43c7d97e)"><path fill="#ffffff" d="M 68.027344 78.078125 C 68.027344 78.578125 67.613281 78.992188 67.113281 78.992188 L 56.585938 78.992188 C 56.082031 78.992188 55.671875 78.578125 55.671875 78.078125 C 55.671875 77.574219 56.082031 77.164062 56.585938 77.164062 L 67.113281 77.164062 C 67.613281 77.164062 68.027344 77.574219 68.027344 78.078125 Z M 61.847656 45.53125 C 62.351562 45.53125 62.761719 45.121094 62.761719 44.617188 L 62.761719 38.734375 C 62.761719 38.230469 62.351562 37.820312 61.847656 37.820312 C 61.347656 37.820312 60.933594 38.230469 60.933594 38.734375 L 60.933594 44.617188 C 60.933594 45.121094 61.347656 45.53125 61.847656 45.53125 Z M 69.734375 47.644531 C 70.171875 47.894531 70.730469 47.746094 70.984375 47.308594 L 73.925781 42.214844 C 74.175781 41.777344 74.023438 41.21875 73.589844 40.964844 C 73.15625 40.714844 72.59375 40.863281 72.339844 41.300781 L 69.398438 46.394531 C 69.148438 46.832031 69.300781 47.394531 69.734375 47.644531 Z M 82.183594 49.5625 C 81.933594 49.125 81.371094 48.976562 80.9375 49.226562 L 75.839844 52.167969 C 75.40625 52.417969 75.253906 52.980469 75.507812 53.417969 C 75.757812 53.851562 76.320312 54.003906 76.753906 53.75 L 81.851562 50.808594 C 82.285156 50.558594 82.4375 49.996094 82.183594 49.5625 Z M 84.417969 60.386719 L 78.535156 60.386719 C 78.03125 60.386719 77.621094 60.800781 77.621094 61.300781 C 77.621094 61.804688 78.03125 62.214844 78.535156 62.214844 L 84.417969 62.214844 C 84.917969 62.214844 85.332031 61.804688 85.332031 61.300781 C 85.332031 60.800781 84.917969 60.386719 84.417969 60.386719 Z M 52.71875 47.308594 C 52.96875 47.746094 53.527344 47.894531 53.964844 47.644531 C 54.398438 47.394531 54.550781 46.832031 54.300781 46.394531 L 51.355469 41.300781 C 51.105469 40.867188 50.542969 40.714844 50.109375 40.964844 C 49.675781 41.21875 49.523438 41.777344 49.777344 42.214844 Z M 47.859375 52.167969 L 42.761719 49.226562 C 42.328125 48.976562 41.765625 49.125 41.515625 49.5625 C 41.261719 49.996094 41.414062 50.558594 41.847656 50.808594 L 46.945312 53.75 C 47.378906 54 47.941406 53.851562 48.191406 53.417969 C 48.445312 52.980469 48.292969 52.417969 47.859375 52.167969 Z M 45.164062 60.386719 L 39.28125 60.386719 C 38.777344 60.386719 38.367188 60.796875 38.367188 61.300781 C 38.367188 61.804688 38.777344 62.214844 39.28125 62.214844 L 45.164062 62.214844 C 45.667969 62.214844 46.078125 61.804688 46.078125 61.300781 C 46.078125 60.796875 45.667969 60.386719 45.164062 60.386719 Z M 67.113281 79.671875 L 56.585938 79.671875 C 56.082031 79.671875 55.671875 80.082031 55.671875 80.585938 C 55.671875 81.089844 56.082031 81.5 56.585938 81.5 L 67.113281 81.5 C 67.613281 81.5 68.027344 81.089844 68.027344 80.585938 C 68.027344 80.085938 67.613281 79.671875 67.113281 79.671875 Z M 61.851562 84.414062 C 63.289062 84.414062 64.507812 83.476562 64.933594 82.183594 L 58.761719 82.183594 C 59.191406 83.476562 60.410156 84.414062 61.851562 84.414062 Z M 74.710938 61.300781 C 74.710938 65.078125 73.082031 68.476562 70.492188 70.832031 C 70.484375 70.832031 70.101562 71.15625 69.917969 71.316406 C 68.699219 72.375 68.023438 74.007812 68.023438 75.75 L 55.671875 75.75 C 55.671875 74.007812 54.996094 72.375 53.777344 71.316406 C 53.59375 71.15625 53.210938 70.832031 53.207031 70.832031 C 50.613281 68.476562 48.984375 65.078125 48.984375 61.300781 C 48.984375 54.195312 54.746094 48.4375 61.847656 48.4375 C 68.953125 48.4375 74.714844 54.195312 74.710938 61.300781 Z M 66.28125 63.707031 C 66.28125 61.917969 65.328125 60.824219 62.964844 59.992188 C 61.273438 59.355469 60.578125 58.9375 60.578125 58.28125 C 60.578125 57.726562 60.996094 57.167969 62.285156 57.167969 C 63.71875 57.167969 64.632812 57.625 65.148438 57.84375 L 65.722656 55.597656 C 65.066406 55.28125 64.171875 55 62.84375 54.941406 L 62.84375 54.070312 C 62.84375 53.847656 62.757812 53.621094 62.585938 53.453125 C 62.414062 53.28125 62.191406 53.195312 61.964844 53.195312 L 61.773438 53.195312 C 61.546875 53.195312 61.324219 53.28125 61.152344 53.453125 C 60.980469 53.621094 60.894531 53.847656 60.894531 54.070312 L 60.894531 55.082031 C 58.769531 55.5 57.539062 56.871094 57.539062 58.621094 C 57.539062 60.546875 58.988281 61.542969 61.113281 62.257812 C 62.585938 62.753906 63.222656 63.230469 63.222656 63.984375 C 63.222656 64.78125 62.445312 65.214844 61.316406 65.214844 C 60.023438 65.214844 58.851562 64.800781 58.015625 64.34375 L 57.421875 66.667969 C 58.175781 67.105469 59.464844 67.460938 60.796875 67.523438 L 60.796875 68.53125 C 60.796875 68.753906 60.882812 68.980469 61.054688 69.152344 C 61.222656 69.320312 61.449219 69.40625 61.671875 69.40625 L 61.867188 69.40625 C 62.089844 69.40625 62.316406 69.320312 62.488281 69.152344 C 62.65625 68.980469 62.742188 68.753906 62.742188 68.53125 L 62.742188 67.382812 C 65.027344 66.984375 66.28125 65.476562 66.28125 63.707031 Z M 66.28125 63.707031 " fill-opacity="1" fill-rule="nonzero"/></g><path fill="#fada27" d="M 68.914062 60.878906 C 68.914062 61.382812 68.863281 61.882812 68.769531 62.375 C 68.671875 62.871094 68.53125 63.351562 68.34375 63.816406 C 68.15625 64.28125 67.925781 64.726562 67.652344 65.144531 C 67.382812 65.5625 67.070312 65.953125 66.726562 66.308594 C 66.378906 66.664062 66 66.984375 65.59375 67.265625 C 65.1875 67.542969 64.753906 67.78125 64.300781 67.972656 C 63.847656 68.167969 63.382812 68.3125 62.902344 68.410156 C 62.421875 68.507812 61.933594 68.558594 61.445312 68.558594 C 60.953125 68.558594 60.46875 68.507812 59.988281 68.410156 C 59.507812 68.3125 59.039062 68.167969 58.585938 67.972656 C 58.132812 67.78125 57.703125 67.542969 57.296875 67.265625 C 56.886719 66.984375 56.511719 66.664062 56.164062 66.308594 C 55.816406 65.953125 55.507812 65.5625 55.234375 65.144531 C 54.960938 64.726562 54.730469 64.28125 54.542969 63.816406 C 54.355469 63.351562 54.214844 62.871094 54.121094 62.375 C 54.023438 61.882812 53.976562 61.382812 53.976562 60.878906 C 53.976562 60.371094 54.023438 59.875 54.121094 59.378906 C 54.214844 58.882812 54.355469 58.402344 54.542969 57.9375 C 54.730469 57.472656 54.960938 57.03125 55.234375 56.609375 C 55.507812 56.191406 55.816406 55.804688 56.164062 55.445312 C 56.511719 55.089844 56.886719 54.769531 57.296875 54.492188 C 57.703125 54.210938 58.132812 53.972656 58.585938 53.78125 C 59.039062 53.589844 59.507812 53.441406 59.988281 53.34375 C 60.46875 53.246094 60.953125 53.195312 61.445312 53.195312 C 61.933594 53.195312 62.421875 53.246094 62.902344 53.34375 C 63.382812 53.441406 63.847656 53.589844 64.300781 53.78125 C 64.753906 53.972656 65.1875 54.210938 65.59375 54.492188 C 66 54.769531 66.378906 55.089844 66.726562 55.445312 C 67.070312 55.804688 67.382812 56.191406 67.652344 56.609375 C 67.925781 57.03125 68.15625 57.472656 68.34375 57.9375 C 68.53125 58.402344 68.671875 58.882812 68.769531 59.378906 C 68.863281 59.875 68.914062 60.371094 68.914062 60.878906 Z M 68.914062 60.878906 " fill-opacity="1" fill-rule="nonzero"/><g clip-path="url(#0c5b35a791)"><path fill="#ffffff" d="M 68 55.28125 C 67.789062 55.03125 67.558594 54.792969 67.320312 54.570312 C 67.082031 54.347656 66.828125 54.136719 66.566406 53.941406 C 66.304688 53.746094 66.03125 53.566406 65.746094 53.402344 C 65.464844 53.242188 65.175781 53.09375 64.875 52.964844 C 64.578125 52.835938 64.273438 52.722656 63.960938 52.628906 C 63.648438 52.535156 63.335938 52.460938 63.015625 52.402344 C 62.695312 52.347656 62.375 52.308594 62.050781 52.289062 C 61.726562 52.269531 61.402344 52.269531 61.078125 52.285156 C 60.753906 52.304688 60.433594 52.339844 60.113281 52.398438 C 59.792969 52.453125 59.480469 52.527344 59.167969 52.617188 C 58.855469 52.710938 58.550781 52.820312 58.25 52.949219 C 57.953125 53.078125 57.660156 53.222656 57.375 53.382812 C 57.09375 53.546875 56.820312 53.722656 56.554688 53.917969 C 56.292969 54.109375 56.039062 54.320312 55.796875 54.542969 C 55.558594 54.765625 55.328125 55 55.113281 55.25 C 54.898438 55.5 54.699219 55.761719 54.511719 56.035156 C 54.316406 56.320312 54.140625 56.613281 53.980469 56.917969 C 53.367188 58.085938 53.03125 59.332031 52.96875 60.660156 C 52.960938 60.808594 52.957031 60.957031 52.957031 61.109375 C 52.957031 61.464844 52.976562 61.820312 53.019531 62.171875 C 53.0625 62.527344 53.125 62.875 53.207031 63.21875 C 53.289062 63.566406 53.390625 63.90625 53.511719 64.238281 C 53.636719 64.570312 53.777344 64.894531 53.9375 65.210938 C 54.097656 65.527344 54.277344 65.828125 54.472656 66.121094 C 54.667969 66.417969 54.882812 66.695312 55.113281 66.960938 C 55.339844 67.230469 55.585938 67.480469 55.84375 67.71875 C 56.101562 67.953125 56.375 68.171875 56.660156 68.375 C 56.941406 68.578125 57.238281 68.761719 57.542969 68.929688 C 57.851562 69.09375 58.164062 69.242188 58.488281 69.367188 C 58.8125 69.492188 59.140625 69.601562 59.476562 69.6875 C 59.8125 69.773438 60.152344 69.835938 60.496094 69.878906 C 60.839844 69.921875 61.183594 69.945312 61.53125 69.945312 C 61.878906 69.945312 62.222656 69.925781 62.566406 69.882812 C 62.910156 69.84375 63.25 69.777344 63.585938 69.695312 C 63.921875 69.609375 64.25 69.503906 64.574219 69.378906 C 64.898438 69.253906 65.214844 69.109375 65.523438 68.945312 C 65.828125 68.78125 66.125 68.597656 66.410156 68.394531 C 66.695312 68.195312 66.96875 67.976562 67.226562 67.742188 C 67.488281 67.507812 67.730469 67.253906 67.960938 66.988281 C 68.191406 66.722656 68.40625 66.445312 68.605469 66.152344 C 68.800781 65.859375 68.980469 65.558594 69.144531 65.242188 C 69.304688 64.929688 69.449219 64.605469 69.570312 64.273438 C 69.695312 63.941406 69.800781 63.601562 69.882812 63.257812 C 69.96875 62.910156 70.03125 62.5625 70.074219 62.207031 C 70.117188 61.855469 70.140625 61.5 70.140625 61.144531 C 70.140625 60.789062 70.121094 60.433594 70.082031 60.082031 C 70.042969 59.726562 69.980469 59.378906 69.898438 59.03125 C 69.816406 58.6875 69.714844 58.347656 69.59375 58.011719 C 69.472656 57.679688 69.332031 57.355469 69.175781 57.039062 C 69.015625 56.722656 68.835938 56.417969 68.640625 56.125 C 68.445312 55.832031 68.234375 55.550781 68.007812 55.28125 Z M 58.679688 62.328125 C 59.40625 62.851562 60.085938 63.167969 60.785156 63.285156 L 60.785156 61.882812 C 58.960938 61.453125 58.035156 60.8125 58.035156 59.367188 L 58.035156 59.34375 C 58.035156 57.96875 59.007812 57.015625 60.742188 56.886719 L 60.742188 56.222656 L 61.917969 56.222656 L 61.917969 56.921875 C 62.789062 57.015625 63.585938 57.316406 64.308594 57.828125 L 63.378906 59.390625 C 62.914062 59.0625 62.410156 58.832031 61.863281 58.695312 L 61.863281 60.046875 C 63.660156 60.480469 64.570312 61.144531 64.570312 62.589844 L 64.570312 62.613281 C 64.570312 64.03125 63.503906 64.90625 61.894531 65.058594 L 61.894531 66.199219 L 60.71875 66.199219 L 60.71875 65.027344 C 59.601562 64.917969 58.582031 64.53125 57.660156 63.871094 Z M 58.679688 62.328125 " fill-opacity="1" fill-rule="nonzero"/></g><path fill="#ffffff" d="M 62.609375 62.757812 L 62.609375 62.734375 C 62.609375 62.417969 62.4375 62.242188 61.851562 62.070312 L 61.851562 63.351562 C 62.371094 63.292969 62.609375 63.09375 62.609375 62.757812 Z M 62.609375 62.757812 " fill-opacity="1" fill-rule="nonzero"/><path fill="#ffffff" d="M 60.796875 58.585938 C 60.242188 58.632812 60.027344 58.867188 60.027344 59.167969 L 60.027344 59.191406 C 60.027344 59.496094 60.1875 59.667969 60.796875 59.84375 Z M 60.796875 58.585938 " fill-opacity="1" fill-rule="nonzero"/></svg>