<svg width="88" height="90" viewBox="0 0 88 90" fill="none" xmlns="http://www.w3.org/2000/svg">
<mask id="mask0_8_335" style="mask-type:luminance" maskUnits="userSpaceOnUse" x="16" y="84" width="57" height="6">
<path d="M16.6666 84.3333H72.6666V89.4271H16.6666V84.3333Z" fill="white"/>
</mask>
<g mask="url(#mask0_8_335)">
<path d="M16.7708 84.625H71.6562V89.3854H16.7708V84.625Z" fill="white"/>
</g>
<path d="M10.8698 78.6979H77.5573V83.4531H10.8698V78.6979Z" fill="white"/>
<path d="M37.4219 16.4479H51.0052V24.1667H37.4219V16.4479Z" fill="white"/>
<path d="M6.44275 17.9323H36.2552V22.6875H6.44275V17.9323Z" fill="white"/>
<path d="M52.1719 17.9323H81.9844V22.6875H52.1719V17.9323Z" fill="white"/>
<mask id="mask1_8_335" style="mask-type:luminance" maskUnits="userSpaceOnUse" x="0" y="0" width="88" height="9">
<path d="M0.541626 0.0989685H87.8854V8.33334H0.541626V0.0989685Z" fill="white"/>
</mask>
<g mask="url(#mask1_8_335)">
<path d="M0.546875 0.145844H87.8854V7.86459H0.546875V0.145844Z" fill="white"/>
</g>
<path d="M49.2552 25.3385L46.7709 31.5781H41.6563L39.1771 25.3385H49.2552Z" fill="white"/>
<mask id="mask2_8_335" style="mask-type:luminance" maskUnits="userSpaceOnUse" x="82" y="8" width="6" height="25">
<path d="M82 8.33334H87.8854V32.3333H82V8.33334Z" fill="white"/>
</mask>
<g mask="url(#mask2_8_335)">
<path d="M83.151 9.03647H87.8854V31.5781H83.151V9.03647Z" fill="white"/>
</g>
<mask id="mask3_8_335" style="mask-type:luminance" maskUnits="userSpaceOnUse" x="0" y="8" width="6" height="25">
<path d="M0.541626 8.33334H5.99996V32.3333H0.541626V8.33334Z" fill="white"/>
</mask>
<g mask="url(#mask3_8_335)">
<path d="M0.546875 9.03647H5.27604V31.5781H0.546875V9.03647Z" fill="white"/>
</g>
<path d="M43.3229 32.75H45.1093V37.5104H43.3229V32.75Z" fill="white"/>
<path d="M44.8698 38.9375V39.9375H43.875V38.9375M44.8698 40.9323V41.9323H43.875V40.9323M44.8698 42.9323V43.9271H43.875V42.9323M44.8698 44.9271V45.9219H43.875V44.9271M44.8698 46.9219V47.9167H43.875V46.9219M44.8698 48.9167V49.9167H43.875V48.9167M44.8698 50.9115V51.9115H43.875V50.9115M44.8698 52.9063V53.9063H43.875V52.9063M44.8698 54.901V55.901H43.875V54.901M44.8698 56.8958V57.8958H43.875V56.8958M44.8698 58.8958V59.8906H43.875V58.8958M44.8698 60.8906V61.8854H43.875V60.8906M44.8698 62.8854V63.8802H43.875V62.8854M44.8698 64.8802V65.8802H43.875V64.8802M44.8698 66.875V67.875H43.875V66.875M44.8698 68.8698V69.8698H43.875V68.8698M44.8698 70.8646V71.8646H43.875V70.8646M44.8698 72.8594V73.8594H43.875V72.8594M44.8698 74.8594V75.8542H43.875V74.8594M44.8698 76.8542V77.651H43.875V76.8542" fill="white"/>
</svg>
