<svg width="128" height="90" viewBox="0 0 128 90" fill="none" xmlns="http://www.w3.org/2000/svg">
<mask id="mask0_5_149" style="mask-type:luminance" maskUnits="userSpaceOnUse" x="87" y="0" width="41" height="38">
<path d="M87.9688 0.130203H127.667V37.6667H87.9688V0.130203Z" fill="white"/>
</mask>
<g mask="url(#mask0_5_149)">
<path d="M123.406 4.54687H115.203V1.74479C115.203 0.854161 114.479 0.130203 113.589 0.130203H102.094C101.203 0.130203 100.479 0.854161 100.479 1.74479V4.54687H92.276C89.9479 4.54687 88.0573 6.4375 88.0573 8.76041V36.9531C88.0573 37.25 88.2968 37.4844 88.5885 37.4844H96.3698C96.6614 37.4844 96.901 37.25 96.901 36.9531C96.901 36.6615 96.6614 36.4219 96.3698 36.4219H89.1198V8.76041C89.1198 7.02083 90.5364 5.60937 92.276 5.60937H100.479V8.33854C100.479 9.22916 101.203 9.94791 102.094 9.94791H113.589C114.479 9.94791 115.203 9.22916 115.203 8.33854V5.60937H123.406C125.146 5.60937 126.562 7.02083 126.562 8.76041V36.4219H119.297C119.005 36.4219 118.766 36.6615 118.766 36.9531C118.766 37.25 119.005 37.4844 119.297 37.4844H127.094C127.385 37.4844 127.625 37.25 127.625 36.9531V8.76041C127.625 6.4375 125.734 4.54687 123.406 4.54687Z" fill="white"/>
</g>
<path d="M98.2552 30.1979L107.844 35.4427L117.427 30.1979L107.844 24.7656L98.2552 30.1979Z" fill="white"/>
<mask id="mask1_5_149" style="mask-type:luminance" maskUnits="userSpaceOnUse" x="97" y="31" width="21" height="16">
<path d="M97.6666 31H117.667V46.7813H97.6666V31Z" fill="white"/>
</mask>
<g mask="url(#mask1_5_149)">
<path d="M98.2552 31.4948V41.2552L107.844 46.7813L117.427 41.2552V31.4948L107.844 36.7396L98.2552 31.4948Z" fill="white"/>
</g>
<path d="M107.25 18.0729C107.25 18.3698 107.49 18.6042 107.781 18.6042C108.073 18.6042 108.313 18.3698 108.313 18.0729V14.375H111.198C111.594 14.375 111.911 14.0521 111.911 13.6615V11.0104H103.771V13.6615C103.771 14.0521 104.089 14.375 104.484 14.375H107.25V18.0729Z" fill="white"/>
<path d="M68.7135 46.9635V42.6094H82.0625V67.2292H74.3958C74.2343 67.2292 74.1093 67.3542 74.1093 67.5104V69.2188H54.7968V42.6094H68.1458V46.9635C68.1458 47.1198 68.2708 47.25 68.4323 47.25C68.5885 47.25 68.7135 47.1198 68.7135 46.9635ZM54.5104 42.0417C54.3541 42.0417 54.2291 42.1667 54.2291 42.3229V69.5C54.2291 69.6563 54.3541 69.7865 54.5104 69.7865H74.3958C74.552 69.7865 74.677 69.6563 74.677 69.5V67.7969H82.3489C82.5052 67.7969 82.6302 67.6667 82.6302 67.5104V42.3229C82.6302 42.1667 82.5052 42.0417 82.3489 42.0417H54.5104Z" fill="white"/>
<mask id="mask2_5_149" style="mask-type:luminance" maskUnits="userSpaceOnUse" x="43" y="31" width="43" height="43">
<path d="M43.6198 31.4375H85.3073V73.125H43.6198V31.4375Z" fill="white"/>
</mask>
<g mask="url(#mask2_5_149)">
<path d="M84.7187 36.7396H79.9791V32.0052H84.7187V36.7396ZM84.7187 39.3906H74.677V37.3073H84.7187V39.3906ZM84.7187 72.5313H52.1406V39.9583H84.7187V72.5313ZM58.2031 37.3073V39.3906H52.1406V37.3073H58.2031ZM74.1093 37.3073V39.3906H58.7708V37.3073H74.1093ZM44.1875 36.7396V32.0052H79.4114V36.7396H44.1875ZM51.5781 39.6771V69.8802H44.1875V37.3073H51.5781V39.6771ZM51.5781 72.5313H44.1875V70.4479H51.5781V72.5313ZM85 31.4375H43.9062C43.75 31.4375 43.6198 31.5625 43.6198 31.724V72.8125C43.6198 72.9688 43.75 73.099 43.9062 73.099H85C85.1562 73.099 85.2812 72.9688 85.2812 72.8125V31.724C85.2812 31.5625 85.1562 31.4375 85 31.4375Z" fill="white"/>
</g>
<path d="M49.9636 34.0885C49.8021 34.0885 49.6771 34.2188 49.6771 34.375C49.6771 34.526 49.8021 34.6563 49.9636 34.6563C50.1198 34.6563 50.2448 34.526 50.2448 34.375C50.2448 34.2188 50.1198 34.0885 49.9636 34.0885Z" fill="white"/>
<path d="M48.8281 34.0885C48.6667 34.0885 48.5469 34.2188 48.5469 34.375C48.5469 34.526 48.6667 34.6563 48.8281 34.6563C48.9792 34.6563 49.1094 34.526 49.1094 34.375C49.1094 34.2188 48.9792 34.0885 48.8281 34.0885Z" fill="white"/>
<path d="M51.0938 34.0885C50.9375 34.0885 50.8125 34.2188 50.8125 34.375C50.8125 34.526 50.9375 34.6563 51.0938 34.6563C51.25 34.6563 51.3802 34.526 51.3802 34.375C51.3802 34.2188 51.25 34.0885 51.0938 34.0885Z" fill="white"/>
<path d="M47.6927 34.0885C47.5365 34.0885 47.4062 34.2188 47.4062 34.375C47.4062 34.526 47.5365 34.6563 47.6927 34.6563C47.849 34.6563 47.974 34.526 47.974 34.375C47.974 34.2188 47.849 34.0885 47.6927 34.0885Z" fill="white"/>
<path d="M46.5573 34.0885C46.3958 34.0885 46.276 34.2188 46.276 34.375C46.276 34.526 46.3958 34.6563 46.5573 34.6563C46.7135 34.6563 46.8437 34.526 46.8437 34.375C46.8437 34.2188 46.7135 34.0885 46.5573 34.0885Z" fill="white"/>
<path d="M73.3386 52.1719L73.948 52.4583L73.3386 52.7396L68.823 54.8542L68.5365 54.9844L68.2552 54.8542L63.7396 52.7396L63.1355 52.4583L63.7396 52.1719L68.5365 49.9323L73.3386 52.1719ZM68.2552 62.4271L62.75 59.849V52.9062L68.2552 55.4792V62.4271ZM62.3438 52.2031C62.3177 52.2135 62.2917 52.2292 62.2709 52.25C62.2657 52.2604 62.2605 52.2656 62.2552 52.2708C62.2396 52.2917 62.224 52.3125 62.2136 52.3333C62.2084 52.3385 62.2032 52.349 62.198 52.3594C62.1875 52.3906 62.1771 52.4219 62.1771 52.4583V60.0312C62.1771 60.1406 62.2448 60.2448 62.3438 60.2865L68.4219 63.1302H68.4323C68.4688 63.1458 68.5 63.1562 68.5365 63.1562C68.5782 63.1562 68.6094 63.1458 68.6459 63.1302C68.6511 63.1302 68.6563 63.1302 68.6563 63.1302L71.073 62C71.2188 61.9323 71.2813 61.7604 71.2136 61.625C71.1927 61.5729 71.1563 61.5417 71.1198 61.5156C71.0365 61.4583 70.9323 61.4427 70.8386 61.4844L68.823 62.4271V55.4792L74.3334 52.9062V56.6406C74.3334 56.7396 74.3802 56.8177 74.4532 56.8698C74.5 56.901 74.5521 56.9271 74.6146 56.9271C74.7709 56.9271 74.9011 56.7969 74.9011 56.6406V52.4583C74.9011 52.4219 74.8907 52.3906 74.8802 52.3594C74.875 52.349 74.8698 52.3385 74.8698 52.3333C74.8542 52.3125 74.8386 52.2917 74.823 52.2708C74.8177 52.2656 74.8125 52.2604 74.8125 52.25C74.7865 52.2292 74.7605 52.2135 74.7344 52.2031L68.6563 49.3594C68.5834 49.3229 68.4948 49.3229 68.4219 49.3594L62.3438 52.2031Z" fill="white"/>
<path d="M73.3125 59.0469C73.2396 59.1146 73.2136 59.224 73.2448 59.3281L73.7188 60.9271C73.7552 61.0521 73.8698 61.1302 73.9896 61.1302C74.0156 61.1302 74.0469 61.1302 74.0729 61.1198C74.224 61.0729 74.3073 60.9167 74.2656 60.7656L74.2188 60.6146L73.9375 59.6823L74.8386 59.9687L74.9792 60.0104C75.125 60.0573 75.2865 59.9792 75.3334 59.8281C75.3802 59.6771 75.2969 59.5156 75.1459 59.4687L73.599 58.9792C73.5 58.9479 73.3906 58.9687 73.3125 59.0469Z" fill="white"/>
<path d="M74.5677 60.3333C74.4531 60.4427 74.4531 60.625 74.5625 60.7396L75.5156 61.724C75.5729 61.7813 75.6458 61.8125 75.7187 61.8125C75.7916 61.8125 75.8593 61.7813 75.9166 61.7344C76.0312 61.625 76.0312 61.4427 75.9218 61.3281L74.9687 60.3438C74.8593 60.2292 74.6823 60.224 74.5677 60.3333Z" fill="white"/>
<path d="M46.8437 41.3333C46.8437 40.5729 47.3073 39.9583 47.8802 39.9583C48.4583 39.9583 48.9218 40.5729 48.9218 41.3333V42.0417H46.8437V41.3333ZM46.5573 43.9375C46.7135 43.9375 46.8437 43.8073 46.8437 43.651V42.6094H48.9218V43.651C48.9218 43.8073 49.052 43.9375 49.2083 43.9375C49.3645 43.9375 49.4895 43.8073 49.4895 43.651V41.3333C49.4895 40.2604 48.7708 39.3906 47.8802 39.3906C46.9948 39.3906 46.276 40.2604 46.276 41.3333V43.651C46.276 43.8073 46.401 43.9375 46.5573 43.9375Z" fill="white"/>
<path d="M46.5573 46.0208C46.3958 46.0208 46.276 46.1458 46.276 46.3021C46.276 46.4583 46.3958 46.5886 46.5573 46.5886C46.7135 46.5886 46.8437 46.4583 46.8437 46.3021C46.8437 46.1458 46.7135 46.0208 46.5573 46.0208Z" fill="white"/>
<path d="M46.5573 48.2865C46.3958 48.2865 46.276 48.4167 46.276 48.5729C46.276 48.7292 46.3958 48.8542 46.5573 48.8542C46.7135 48.8542 46.8437 48.7292 46.8437 48.5729C46.8437 48.4167 46.7135 48.2865 46.5573 48.2865Z" fill="white"/>
<path d="M46.5573 49.4219C46.3958 49.4219 46.276 49.5521 46.276 49.7083C46.276 49.8646 46.3958 49.9896 46.5573 49.9896C46.7135 49.9896 46.8437 49.8646 46.8437 49.7083C46.8437 49.5521 46.7135 49.4219 46.5573 49.4219Z" fill="white"/>
<path d="M46.5573 50.5573C46.3958 50.5573 46.276 50.6875 46.276 50.8438C46.276 51 46.3958 51.125 46.5573 51.125C46.7135 51.125 46.8437 51 46.8437 50.8438C46.8437 50.6875 46.7135 50.5573 46.5573 50.5573Z" fill="white"/>
<path d="M46.5573 47.1562C46.3958 47.1562 46.276 47.276 46.276 47.4375C46.276 47.5937 46.3958 47.724 46.5573 47.724C46.7135 47.724 46.8437 47.5937 46.8437 47.4375C46.8437 47.276 46.7135 47.1562 46.5573 47.1562Z" fill="white"/>
<path d="M46.5573 59.6354C46.3958 59.6354 46.276 59.7604 46.276 59.9219C46.276 60.0729 46.3958 60.2031 46.5573 60.2031C46.7135 60.2031 46.8437 60.0729 46.8437 59.9219C46.8437 59.7604 46.7135 59.6354 46.5573 59.6354Z" fill="white"/>
<path d="M46.5573 60.7708C46.3958 60.7708 46.276 60.8958 46.276 61.0521C46.276 61.2083 46.3958 61.3386 46.5573 61.3386C46.7135 61.3386 46.8437 61.2083 46.8437 61.0521C46.8437 60.8958 46.7135 60.7708 46.5573 60.7708Z" fill="white"/>
<path d="M46.5573 57.3646C46.3958 57.3646 46.276 57.4896 46.276 57.6511C46.276 57.8073 46.3958 57.9323 46.5573 57.9323C46.7135 57.9323 46.8437 57.8073 46.8437 57.6511C46.8437 57.4896 46.7135 57.3646 46.5573 57.3646Z" fill="white"/>
<path d="M46.5573 61.901C46.3958 61.901 46.276 62.0313 46.276 62.1875C46.276 62.3438 46.3958 62.474 46.5573 62.474C46.7135 62.474 46.8437 62.3438 46.8437 62.1875C46.8437 62.0313 46.7135 61.901 46.5573 61.901Z" fill="white"/>
<path d="M46.5573 58.5C46.3958 58.5 46.276 58.625 46.276 58.7813C46.276 58.9375 46.3958 59.0677 46.5573 59.0677C46.7135 59.0677 46.8437 58.9375 46.8437 58.7813C46.8437 58.625 46.7135 58.5 46.5573 58.5Z" fill="white"/>
<path d="M46.5573 63.0417C46.3958 63.0417 46.276 63.1667 46.276 63.3229C46.276 63.4792 46.3958 63.6042 46.5573 63.6042C46.7135 63.6042 46.8437 63.4792 46.8437 63.3229C46.8437 63.1667 46.7135 63.0417 46.5573 63.0417Z" fill="white"/>
<path d="M46.5573 65.3073C46.3958 65.3073 46.276 65.4323 46.276 65.5938C46.276 65.7448 46.3958 65.875 46.5573 65.875C46.7135 65.875 46.8437 65.7448 46.8437 65.5938C46.8437 65.4323 46.7135 65.3073 46.5573 65.3073Z" fill="white"/>
<path d="M46.5573 51.6927C46.3958 51.6927 46.276 51.8229 46.276 51.974C46.276 52.1302 46.3958 52.2604 46.5573 52.2604C46.7135 52.2604 46.8437 52.1302 46.8437 51.974C46.8437 51.8229 46.7135 51.6927 46.5573 51.6927Z" fill="white"/>
<path d="M46.5573 56.2344C46.3958 56.2344 46.276 56.3594 46.276 56.5156C46.276 56.6719 46.3958 56.7969 46.5573 56.7969C46.7135 56.7969 46.8437 56.6719 46.8437 56.5156C46.8437 56.3594 46.7135 56.2344 46.5573 56.2344Z" fill="white"/>
<path d="M46.5573 64.1719C46.3958 64.1719 46.276 64.2969 46.276 64.4583C46.276 64.6146 46.3958 64.7396 46.5573 64.7396C46.7135 64.7396 46.8437 64.6146 46.8437 64.4583C46.8437 64.2969 46.7135 64.1719 46.5573 64.1719Z" fill="white"/>
<path d="M46.5573 66.4427C46.3958 66.4427 46.276 66.5677 46.276 66.724C46.276 66.8854 46.3958 67.0104 46.5573 67.0104C46.7135 67.0104 46.8437 66.8854 46.8437 66.724C46.8437 66.5677 46.7135 66.4427 46.5573 66.4427Z" fill="white"/>
<path d="M46.5573 53.9635C46.3958 53.9635 46.276 54.0833 46.276 54.2448C46.276 54.401 46.3958 54.5313 46.5573 54.5313C46.7135 54.5313 46.8437 54.401 46.8437 54.2448C46.8437 54.0833 46.7135 53.9635 46.5573 53.9635Z" fill="white"/>
<path d="M46.5573 55.0938C46.3958 55.0938 46.276 55.224 46.276 55.3802C46.276 55.5365 46.3958 55.6615 46.5573 55.6615C46.7135 55.6615 46.8437 55.5365 46.8437 55.3802C46.8437 55.224 46.7135 55.0938 46.5573 55.0938Z" fill="white"/>
<path d="M46.5573 52.8281C46.3958 52.8281 46.276 52.9531 46.276 53.1146C46.276 53.2656 46.3958 53.3958 46.5573 53.3958C46.7135 53.3958 46.8437 53.2656 46.8437 53.1146C46.8437 52.9531 46.7135 52.8281 46.5573 52.8281Z" fill="white"/>
<path d="M49.2083 51.6927C49.0521 51.6927 48.9219 51.8229 48.9219 51.974C48.9219 52.1302 49.0521 52.2604 49.2083 52.2604C49.3698 52.2604 49.4896 52.1302 49.4896 51.974C49.4896 51.8229 49.3698 51.6927 49.2083 51.6927Z" fill="white"/>
<path d="M49.2083 47.1562C49.0521 47.1562 48.9219 47.276 48.9219 47.4375C48.9219 47.5937 49.0521 47.724 49.2083 47.724C49.3698 47.724 49.4896 47.5937 49.4896 47.4375C49.4896 47.276 49.3698 47.1562 49.2083 47.1562Z" fill="white"/>
<path d="M49.2083 46.0208C49.0521 46.0208 48.9219 46.1458 48.9219 46.3021C48.9219 46.4583 49.0521 46.5886 49.2083 46.5886C49.3698 46.5886 49.4896 46.4583 49.4896 46.3021C49.4896 46.1458 49.3698 46.0208 49.2083 46.0208Z" fill="white"/>
<path d="M49.2083 56.2344C49.0521 56.2344 48.9219 56.3594 48.9219 56.5156C48.9219 56.6719 49.0521 56.7969 49.2083 56.7969C49.3698 56.7969 49.4896 56.6719 49.4896 56.5156C49.4896 56.3594 49.3698 56.2344 49.2083 56.2344Z" fill="white"/>
<path d="M49.2083 49.4219C49.0521 49.4219 48.9219 49.5521 48.9219 49.7083C48.9219 49.8646 49.0521 49.9896 49.2083 49.9896C49.3698 49.9896 49.4896 49.8646 49.4896 49.7083C49.4896 49.5521 49.3698 49.4219 49.2083 49.4219Z" fill="white"/>
<path d="M49.2083 48.2865C49.0521 48.2865 48.9219 48.4167 48.9219 48.5729C48.9219 48.7292 49.0521 48.8542 49.2083 48.8542C49.3698 48.8542 49.4896 48.7292 49.4896 48.5729C49.4896 48.4167 49.3698 48.2865 49.2083 48.2865Z" fill="white"/>
<path d="M49.2083 53.9635C49.0521 53.9635 48.9219 54.0833 48.9219 54.2448C48.9219 54.401 49.0521 54.5313 49.2083 54.5313C49.3698 54.5313 49.4896 54.401 49.4896 54.2448C49.4896 54.0833 49.3698 53.9635 49.2083 53.9635Z" fill="white"/>
<path d="M49.2083 50.5573C49.0521 50.5573 48.9219 50.6875 48.9219 50.8438C48.9219 51 49.0521 51.125 49.2083 51.125C49.3698 51.125 49.4896 51 49.4896 50.8438C49.4896 50.6875 49.3698 50.5573 49.2083 50.5573Z" fill="white"/>
<path d="M49.2083 52.8281C49.0521 52.8281 48.9219 52.9531 48.9219 53.1146C48.9219 53.2656 49.0521 53.3958 49.2083 53.3958C49.3698 53.3958 49.4896 53.2656 49.4896 53.1146C49.4896 52.9531 49.3698 52.8281 49.2083 52.8281Z" fill="white"/>
<path d="M49.2083 57.3646C49.0521 57.3646 48.9219 57.4896 48.9219 57.6511C48.9219 57.8073 49.0521 57.9323 49.2083 57.9323C49.3698 57.9323 49.4896 57.8073 49.4896 57.6511C49.4896 57.4896 49.3698 57.3646 49.2083 57.3646Z" fill="white"/>
<path d="M49.2083 63.0417C49.0521 63.0417 48.9219 63.1667 48.9219 63.3229C48.9219 63.4792 49.0521 63.6042 49.2083 63.6042C49.3698 63.6042 49.4896 63.4792 49.4896 63.3229C49.4896 63.1667 49.3698 63.0417 49.2083 63.0417Z" fill="white"/>
<path d="M49.2083 64.1719C49.0521 64.1719 48.9219 64.2969 48.9219 64.4583C48.9219 64.6146 49.0521 64.7396 49.2083 64.7396C49.3698 64.7396 49.4896 64.6146 49.4896 64.4583C49.4896 64.2969 49.3698 64.1719 49.2083 64.1719Z" fill="white"/>
<path d="M49.2083 65.3073C49.0521 65.3073 48.9219 65.4323 48.9219 65.5938C48.9219 65.7448 49.0521 65.875 49.2083 65.875C49.3698 65.875 49.4896 65.7448 49.4896 65.5938C49.4896 65.4323 49.3698 65.3073 49.2083 65.3073Z" fill="white"/>
<path d="M49.2083 66.4427C49.0521 66.4427 48.9219 66.5677 48.9219 66.724C48.9219 66.8854 49.0521 67.0104 49.2083 67.0104C49.3698 67.0104 49.4896 66.8854 49.4896 66.724C49.4896 66.5677 49.3698 66.4427 49.2083 66.4427Z" fill="white"/>
<path d="M49.2083 58.5C49.0521 58.5 48.9219 58.625 48.9219 58.7813C48.9219 58.9375 49.0521 59.0677 49.2083 59.0677C49.3698 59.0677 49.4896 58.9375 49.4896 58.7813C49.4896 58.625 49.3698 58.5 49.2083 58.5Z" fill="white"/>
<path d="M49.2083 55.0938C49.0521 55.0938 48.9219 55.224 48.9219 55.3802C48.9219 55.5365 49.0521 55.6615 49.2083 55.6615C49.3698 55.6615 49.4896 55.5365 49.4896 55.3802C49.4896 55.224 49.3698 55.0938 49.2083 55.0938Z" fill="white"/>
<path d="M49.2083 60.7708C49.0521 60.7708 48.9219 60.8958 48.9219 61.0521C48.9219 61.2083 49.0521 61.3386 49.2083 61.3386C49.3698 61.3386 49.4896 61.2083 49.4896 61.0521C49.4896 60.8958 49.3698 60.7708 49.2083 60.7708Z" fill="white"/>
<path d="M49.2083 59.6354C49.0521 59.6354 48.9219 59.7604 48.9219 59.9219C48.9219 60.0729 49.0521 60.2031 49.2083 60.2031C49.3698 60.2031 49.4896 60.0729 49.4896 59.9219C49.4896 59.7604 49.3698 59.6354 49.2083 59.6354Z" fill="white"/>
<path d="M49.2083 61.901C49.0521 61.901 48.9219 62.0313 48.9219 62.1875C48.9219 62.3438 49.0521 62.474 49.2083 62.474C49.3698 62.474 49.4896 62.3438 49.4896 62.1875C49.4896 62.0313 49.3698 61.901 49.2083 61.901Z" fill="white"/>
<path d="M59.7031 60.625L55.0625 62.6146C54.9167 62.6719 54.849 62.8438 54.9115 62.9844C54.9583 63.0885 55.0625 63.1563 55.1719 63.1563C55.2135 63.1563 55.25 63.151 55.2813 63.1302L59.9271 61.1458C60.0677 61.0833 60.1354 60.9167 60.0729 60.7708C60.0104 60.6302 59.8438 60.5625 59.7031 60.625Z" fill="white"/>
<path d="M81.5573 62.4636C81.599 62.4844 81.6407 62.4948 81.6875 62.4948C81.7865 62.4948 81.8907 62.4375 81.9375 62.3386C82.0104 62.1979 81.9532 62.0261 81.8125 61.9583L79.1615 60.6302C79.0209 60.5625 78.849 60.6146 78.7813 60.7552C78.7136 60.9011 78.7657 61.0677 78.9063 61.1354L81.5573 62.4636Z" fill="white"/>
<path d="M81.5834 69.8802C81.4271 69.8802 81.3021 70.0052 81.3021 70.1615C81.3021 70.3229 81.4271 70.4479 81.5834 70.4479C81.7396 70.4479 81.8646 70.3229 81.8646 70.1615C81.8646 70.0052 81.7396 69.8802 81.5834 69.8802Z" fill="white"/>
<path d="M78.1771 69.8802C78.0209 69.8802 77.8959 70.0052 77.8959 70.1615C77.8959 70.3229 78.0209 70.4479 78.1771 70.4479C78.3386 70.4479 78.4636 70.3229 78.4636 70.1615C78.4636 70.0052 78.3386 69.8802 78.1771 69.8802Z" fill="white"/>
<path d="M77.0416 69.8802C76.8906 69.8802 76.7604 70.0052 76.7604 70.1615C76.7604 70.3229 76.8906 70.4479 77.0416 70.4479C77.2031 70.4479 77.3281 70.3229 77.3281 70.1615C77.3281 70.0052 77.2031 69.8802 77.0416 69.8802Z" fill="white"/>
<path d="M79.3125 69.8802C79.1563 69.8802 79.0312 70.0052 79.0312 70.1615C79.0312 70.3229 79.1563 70.4479 79.3125 70.4479C79.474 70.4479 79.5938 70.3229 79.5938 70.1615C79.5938 70.0052 79.474 69.8802 79.3125 69.8802Z" fill="white"/>
<path d="M80.4479 69.8802C80.2916 69.8802 80.1666 70.0052 80.1666 70.1615C80.1666 70.3229 80.2916 70.4479 80.4479 70.4479C80.6041 70.4479 80.7343 70.3229 80.7343 70.1615C80.7343 70.0052 80.6041 69.8802 80.4479 69.8802Z" fill="white"/>
<mask id="mask3_5_149" style="mask-type:luminance" maskUnits="userSpaceOnUse" x="0" y="85" width="18" height="5">
<path d="M0.947876 85.6667H17.6666V89.0313H0.947876V85.6667Z" fill="white"/>
</mask>
<g mask="url(#mask3_5_149)">
<path fill-rule="evenodd" clip-rule="evenodd" d="M17.0677 86.2292H1.09375C1.02083 86.2292 0.953125 86.2917 0.953125 86.3698V89.0104H17.2083V86.3698C17.2083 86.2917 17.1458 86.2292 17.0677 86.2292Z" fill="white"/>
</g>
<path fill-rule="evenodd" clip-rule="evenodd" d="M9.60413 77.2292C7.69788 77.2292 5.901 76.4219 4.64579 75L4.07288 85.3542H15.1302L14.5573 75C13.3073 76.4219 11.5104 77.2292 9.60413 77.2292Z" fill="white"/>
<path fill-rule="evenodd" clip-rule="evenodd" d="M9.60415 65.0365C6.45311 65.0365 3.89581 67.5677 3.89581 70.6927C3.89581 73.8229 6.45311 76.3542 9.60415 76.3542C12.7552 76.3542 15.3073 73.8229 15.3073 70.6927C15.3073 67.5677 12.7552 65.0365 9.60415 65.0365ZM7.42185 70.6927C7.42185 71.8906 8.39581 72.8594 9.60415 72.8594C10.8073 72.8594 11.7864 71.8906 11.7864 70.6927C11.7864 69.5 10.8073 68.5313 9.60415 68.5313C8.39581 68.5313 7.42185 69.5 7.42185 70.6927Z" fill="white"/>
<path fill-rule="evenodd" clip-rule="evenodd" d="M12.2031 58.9375L8.72913 64.2188C9.01558 64.1771 9.30725 64.1615 9.60413 64.1615C12.1041 64.1615 14.375 65.5573 15.4948 67.7656L18.2395 62.3906C16.9739 62.7344 15.6302 62.5625 14.4948 61.9167C13.3593 61.2656 12.5312 60.1927 12.2031 58.9375Z" fill="white"/>
<path fill-rule="evenodd" clip-rule="evenodd" d="M15.901 53.8698C12.4896 54.776 11.8177 59.375 14.9323 61.1615C16.8489 62.2552 19.3073 61.6042 20.4114 59.7031C20.9687 58.75 21.0781 57.6667 20.8125 56.6823C20.2396 54.5573 18.0416 53.3021 15.901 53.8698ZM15.6719 56.9896C15.0208 58.1146 16.0833 59.4375 17.3177 59.1094C18.0989 58.901 18.5573 58.1094 18.3489 57.3385C18.0104 56.0781 16.3125 55.8906 15.6719 56.9896Z" fill="white"/>
<path fill-rule="evenodd" clip-rule="evenodd" d="M28.3906 59.2448L21.8177 57.3646C21.8854 58.3021 21.6823 59.2656 21.1771 60.1354C20.8906 60.625 20.5364 61.0417 20.1302 61.3906L27.1823 63.7031L28.3333 59.4323C28.3541 59.3698 28.3698 59.3073 28.3906 59.2448Z" fill="white"/>
<mask id="mask4_5_149" style="mask-type:luminance" maskUnits="userSpaceOnUse" x="31" y="56" width="10" height="6">
<path d="M31 56.3333H40.651V61.6667H31V56.3333Z" fill="white"/>
</mask>
<g mask="url(#mask4_5_149)">
<path d="M39.3958 61.1719L36.9791 58.776L32.2291 60.0417L31.776 58.349L37.5104 56.8281L40.6458 59.9375L39.3958 61.1719Z" fill="white"/>
</g>
<path fill-rule="evenodd" clip-rule="evenodd" d="M31.4948 67.0052L33.7292 58.7344L31.724 58.2031C30.625 57.9115 29.4844 58.5677 29.1875 59.6563L28.026 63.9531C27.7292 65.0469 28.3906 66.1771 29.4948 66.4688L31.4948 67.0052Z" fill="white"/>
<path d="M38.0885 69.3958L33.8073 70.5313L29.5677 66.3333L30.8177 65.0938L34.3333 68.5833L37.6354 67.7031L38.0885 69.3958Z" fill="white"/>
</svg>
