<svg width="50" height="92" viewBox="0 0 50 92" fill="none" xmlns="http://www.w3.org/2000/svg">
<mask id="mask0_7_239" style="mask-type:luminance" maskUnits="userSpaceOnUse" x="0" y="0" width="49" height="49">
<path d="M0.802124 0.666672H49V48.724H0.802124V0.666672Z" fill="white"/>
</mask>
<g mask="url(#mask0_7_239)">
<path d="M46.349 33.2448H45.4375C45.1928 32.5573 44.724 32.0885 44.0313 31.8438V30.1563C44.2448 30.1563 44.4271 30.0833 44.5782 29.9323C44.7292 29.7813 44.8073 29.599 44.8073 29.3854V25.526C44.8021 24.1354 44.6563 22.7604 44.375 21.3958C45.0209 20.8802 45.6042 20.2969 46.125 19.6563C46.6511 19.0104 47.099 18.3177 47.4688 17.5781C47.8438 16.8385 48.1355 16.0677 48.3438 15.2656C48.5521 14.4635 48.6719 13.651 48.7032 12.8229C48.7396 11.9948 48.6823 11.1719 48.5417 10.3542C48.3959 9.53647 48.1667 8.7448 47.8542 7.97917C47.5417 7.21355 47.1511 6.48959 46.6823 5.80209C46.2136 5.1198 45.6771 4.4948 45.073 3.92709C44.4688 3.35938 43.8125 2.85938 43.099 2.4323C42.3907 2.00521 41.6407 1.66146 40.8594 1.39584C40.073 1.13021 39.2709 0.947924 38.448 0.854173C37.625 0.760422 36.7969 0.755215 35.974 0.838548C35.1511 0.921881 34.3438 1.08855 33.5573 1.34896C32.7657 1.60417 32.0157 1.93751 31.2969 2.35938C30.5834 2.77605 29.9219 3.26563 29.3073 3.82292C28.698 4.38542 28.1563 5.00521 27.6771 5.6823C26.7032 5.53126 25.7188 5.45834 24.7344 5.45834C23.4167 5.45834 22.1094 5.58334 20.8177 5.84376C19.5261 6.09897 18.2709 6.47917 17.0521 6.98438C15.8386 7.48959 14.6771 8.10417 13.5834 8.83855C12.4896 9.57292 11.474 10.401 10.5417 11.3333C9.60942 12.2656 8.77608 13.2813 8.04692 14.375C7.31254 15.474 6.69796 16.6302 6.19275 17.8438C5.68754 19.0625 5.30733 20.3177 5.04692 21.6094C4.79171 22.9063 4.6615 24.2083 4.6615 25.526V29.3854C4.6615 29.599 4.73962 29.7813 4.89067 29.9323C5.04171 30.0833 5.224 30.1563 5.43754 30.1563V31.8438C4.74483 32.0885 4.27608 32.5573 4.03129 33.2448H3.11983C2.81254 33.2448 2.51567 33.3073 2.23442 33.4219C1.94796 33.5417 1.69796 33.7083 1.48442 33.9271C1.26567 34.1406 1.099 34.3906 0.979207 34.6771C0.864625 34.9583 0.802124 35.2552 0.802124 35.5625V44.8281C0.802124 45.1354 0.864625 45.4271 0.979207 45.7135C1.099 45.9948 1.26567 46.2448 1.48442 46.4635C1.69796 46.6823 1.94796 46.849 2.23442 46.9635C2.51567 47.0833 2.81254 47.1406 3.11983 47.1406H4.03129C4.19275 47.6042 4.474 47.974 4.87504 48.2604C5.27608 48.5417 5.71879 48.6823 6.20837 48.6875H10.8386C11.0521 48.6875 11.2344 48.6094 11.3855 48.4583C11.5365 48.3073 11.6094 48.125 11.6094 47.9115V47.1406H12.3855C12.6927 47.1406 12.9844 47.0833 13.2709 46.9635C13.5521 46.849 13.8021 46.6823 14.0209 46.4635C14.2396 46.2448 14.4063 45.9948 14.5209 45.7135C14.6407 45.4271 14.698 45.1354 14.698 44.8281V35.5625C14.698 35.2552 14.6407 34.9583 14.5209 34.6771C14.4063 34.3906 14.2396 34.1406 14.0209 33.9271C13.8021 33.7083 13.5521 33.5417 13.2709 33.4219C12.9844 33.3073 12.6927 33.2448 12.3855 33.2448H11.6094V32.474C11.6094 32.2604 11.5365 32.0781 11.3855 31.9271C11.2344 31.776 11.0521 31.7031 10.8386 31.7031H10.0677V30.1563C10.2813 30.1563 10.4636 30.0833 10.6146 29.9323C10.7657 29.7813 10.8386 29.599 10.8386 29.3854V25.526C10.8386 24.6146 10.9271 23.7135 11.1042 22.8177C11.2865 21.9219 11.5469 21.0521 11.8959 20.2083C12.2448 19.3646 12.6719 18.5677 13.1823 17.8073C13.6875 17.0469 14.2657 16.349 14.9115 15.7031C15.5521 15.0573 16.2552 14.4792 17.0157 13.974C17.7709 13.4688 18.573 13.0365 19.4167 12.6875C20.2605 12.3385 21.1302 12.0781 22.0261 11.901C22.9167 11.7188 23.823 11.6302 24.7344 11.6302C25.0052 11.6302 25.2761 11.6302 25.5052 11.6719C25.5052 11.9167 25.5052 12.1563 25.5052 12.401C25.5052 13.1615 25.5782 13.9167 25.7292 14.6615C25.875 15.4063 26.099 16.1302 26.3855 16.8333C26.6771 17.5365 27.0365 18.2031 27.4584 18.8385C27.8802 19.4688 28.3594 20.0521 28.8959 20.5938C29.4375 21.1302 30.0209 21.6094 30.6511 22.0313C31.2865 22.4531 31.9532 22.8125 32.6563 23.1042C33.3594 23.3906 34.0834 23.6146 34.8282 23.7604C35.573 23.9063 36.3282 23.9844 37.0886 23.9844C37.5678 23.9792 38.0469 23.9479 38.5209 23.8802C38.5886 24.4271 38.625 24.9792 38.6303 25.526V29.3854C38.6303 29.599 38.7032 29.7813 38.8542 29.9323C39.0052 30.0833 39.1875 30.1563 39.4011 30.1563V31.7031H38.6303C38.4167 31.7031 38.2344 31.776 38.0834 31.9271C37.9323 32.0781 37.8594 32.2604 37.8594 32.474V33.2448H37.0886C36.7813 33.2448 36.4844 33.3073 36.198 33.4219C35.9167 33.5417 35.6667 33.7083 35.448 33.9271C35.2292 34.1406 35.0625 34.3906 34.948 34.6771C34.8282 34.9583 34.7709 35.2552 34.7709 35.5625V44.8281C34.7709 45.1354 34.8282 45.4271 34.948 45.7135C35.0625 45.9948 35.2292 46.2448 35.448 46.4635C35.6667 46.6823 35.9167 46.849 36.198 46.9635C36.4844 47.0833 36.7813 47.1406 37.0886 47.1406H37.8594V47.9115C37.8594 48.125 37.9323 48.3073 38.0834 48.4583C38.2344 48.6094 38.4167 48.6875 38.6303 48.6875H43.2605C43.75 48.6823 44.198 48.5417 44.5938 48.2604C44.9948 47.974 45.2761 47.6042 45.4375 47.1406H46.349C46.6563 47.1406 46.9532 47.0833 47.2344 46.9635C47.5209 46.849 47.7709 46.6823 47.9896 46.4635C48.2032 46.2448 48.3698 45.9948 48.4896 45.7135C48.6042 45.4271 48.6667 45.1354 48.6667 44.8281V35.5625C48.6667 35.2552 48.6042 34.9583 48.4896 34.6771C48.3698 34.3906 48.2032 34.1406 47.9896 33.9271C47.7709 33.7083 47.5209 33.5417 47.2344 33.4219C46.9532 33.3073 46.6563 33.2448 46.349 33.2448ZM12.3855 34.7917C12.5938 34.7917 12.7761 34.8646 12.9271 35.0156C13.0782 35.1667 13.1563 35.349 13.1563 35.5625V44.8281C13.1563 45.0417 13.0782 45.2188 12.9271 45.3698C12.7761 45.5208 12.5938 45.599 12.3855 45.599H11.6094V34.7917H12.3855ZM37.0886 45.599C36.875 45.599 36.6927 45.5208 36.5417 45.3698C36.3907 45.2188 36.3125 45.0417 36.3125 44.8281V35.5625C36.3125 35.349 36.3907 35.1667 36.5417 35.0156C36.6927 34.8646 36.875 34.7917 37.0886 34.7917H37.8594V45.599H37.0886ZM2.349 44.8281V35.5625C2.349 35.349 2.42191 35.1667 2.57296 35.0156C2.724 34.8646 2.90629 34.7917 3.11983 34.7917H3.89067V45.599H3.11983C2.90629 45.599 2.724 45.5208 2.57296 45.3698C2.42191 45.2188 2.349 45.0417 2.349 44.8281ZM10.0677 47.1406H6.20837C5.99483 47.1406 5.81254 47.0677 5.6615 46.9167C5.51046 46.7656 5.43754 46.5833 5.43754 46.3698V34.0208C5.43754 33.8073 5.51046 33.625 5.6615 33.474C5.81254 33.3229 5.99483 33.2448 6.20837 33.2448H10.0677V47.1406ZM8.52087 31.7031H6.97921V30.1563H8.52087V31.7031ZM24.7344 10.0885C23.7188 10.0885 22.7188 10.1875 21.724 10.3854C20.7292 10.5833 19.7605 10.875 18.8282 11.2604C17.8907 11.651 17 12.125 16.1563 12.6875C15.3125 13.2552 14.5365 13.8906 13.8177 14.6094C13.099 15.3281 12.4584 16.1042 11.8959 16.9479C11.3334 17.7917 10.8594 18.6823 10.4688 19.6198C10.0834 20.5573 9.79171 21.5208 9.59379 22.5156C9.39587 23.5104 9.29692 24.5156 9.29692 25.526V28.6146H6.20837V25.526C6.20837 24.3125 6.32817 23.1042 6.56254 21.9115C6.80212 20.7188 7.15108 19.5625 7.61983 18.4375C8.08337 17.3125 8.65629 16.2448 9.32817 15.2344C10.0052 14.224 10.7761 13.2865 11.6355 12.4271C12.4948 11.5677 13.4323 10.7969 14.4427 10.1198C15.4532 9.44792 16.5209 8.87501 17.6459 8.41146C18.7709 7.94271 19.9271 7.59376 21.1198 7.35417C22.3125 7.1198 23.5157 7.00001 24.7344 7.00001C25.4219 7.00521 26.1042 7.04688 26.7865 7.12501C26.2969 8.08334 25.948 9.08855 25.7292 10.1406C25.3959 10.0885 25.0677 10.0885 24.7344 10.0885ZM27.0521 12.401C27.0521 11.7448 27.1146 11.0938 27.2448 10.4479C27.3698 9.79688 27.5625 9.17188 27.8125 8.56251C28.0677 7.95313 28.375 7.37501 28.7396 6.82813C29.1094 6.28126 29.5261 5.77084 29.9896 5.3073C30.4532 4.84376 30.9636 4.42709 31.5105 4.0573C32.0573 3.69271 32.6355 3.38542 33.2448 3.13021C33.8542 2.88021 34.4844 2.68751 35.1303 2.56251C35.7761 2.4323 36.4271 2.3698 37.0886 2.3698C37.7448 2.3698 38.3959 2.4323 39.0417 2.56251C39.6875 2.68751 40.3178 2.88021 40.9271 3.13021C41.5365 3.38542 42.1146 3.69271 42.6615 4.0573C43.2084 4.42709 43.7188 4.84376 44.1823 5.3073C44.6459 5.77084 45.0625 6.28126 45.4323 6.82813C45.7969 7.37501 46.1042 7.95313 46.3594 8.56251C46.6094 9.17188 46.8021 9.79688 46.9271 10.4479C47.0573 11.0938 47.1198 11.7448 47.1198 12.401C47.1198 13.0625 47.0573 13.7135 46.9271 14.3594C46.8021 15.0052 46.6094 15.6354 46.3594 16.2448C46.1042 16.8542 45.7969 17.4323 45.4323 17.9792C45.0625 18.526 44.6459 19.0313 44.1823 19.5C43.7188 19.9635 43.2084 20.3802 42.6615 20.75C42.1146 21.1146 41.5365 21.4219 40.9271 21.6771C40.3178 21.9271 39.6875 22.1198 39.0417 22.2448C38.3959 22.375 37.7448 22.4375 37.0886 22.4375C36.4271 22.4375 35.7761 22.375 35.1303 22.2448C34.4844 22.1198 33.8542 21.9271 33.2448 21.6771C32.6355 21.4219 32.0573 21.1146 31.5105 20.75C30.9636 20.3802 30.4532 19.9635 29.9896 19.5C29.5261 19.0313 29.1094 18.526 28.7396 17.9792C28.375 17.4323 28.0677 16.8542 27.8125 16.2448C27.5625 15.6354 27.3698 15.0052 27.2448 14.3594C27.1146 13.7135 27.0521 13.0625 27.0521 12.401ZM42.9844 22.349C43.1667 23.401 43.2605 24.4583 43.2605 25.526V28.6146H40.1719V25.526C40.1667 24.8802 40.125 24.2344 40.0417 23.5885C41.0834 23.3125 42.0625 22.901 42.9844 22.349ZM40.948 30.1563H42.4896V31.7031H40.948V30.1563ZM44.0313 46.3698C44.0313 46.5833 43.9584 46.7656 43.8073 46.9167C43.6563 47.0677 43.474 47.1406 43.2605 47.1406H39.4011V33.2448H43.2605C43.474 33.2448 43.6563 33.3229 43.8073 33.474C43.9584 33.625 44.0313 33.8073 44.0313 34.0208V46.3698ZM47.1198 44.8281C47.1198 45.0417 47.0469 45.2188 46.8959 45.3698C46.7448 45.5208 46.5625 45.599 46.349 45.599H45.5782V34.7917H46.349C46.5625 34.7917 46.7448 34.8646 46.8959 35.0156C47.0469 35.1667 47.1198 35.349 47.1198 35.5625V44.8281Z" fill="white"/>
</g>
<path d="M32.4531 11V6.22917H30.9114V11C30.4531 11.1667 30.0833 11.4479 29.802 11.849C29.526 12.2448 29.3854 12.6875 29.3854 13.1771C29.3854 13.6615 29.526 14.1042 29.802 14.5052C30.0833 14.9063 30.4531 15.1875 30.9114 15.3542V18.5781H32.4531V15.3542C32.9114 15.1875 33.2812 14.9063 33.5625 14.5052C33.8385 14.1042 33.9791 13.6615 33.9791 13.1771C33.9791 12.6875 33.8385 12.2448 33.5625 11.849C33.2812 11.4479 32.9114 11.1667 32.4531 11ZM31.6823 13.9479C31.4687 13.9479 31.2864 13.8698 31.1354 13.724C30.9843 13.5729 30.9114 13.3906 30.9114 13.1771C30.9114 12.9635 30.9843 12.7813 31.1354 12.6302C31.2864 12.4792 31.4687 12.401 31.6823 12.401C31.8958 12.401 32.0781 12.4792 32.2291 12.6302C32.3802 12.7813 32.4531 12.9635 32.4531 13.1771C32.4531 13.3906 32.3802 13.5729 32.2291 13.724C32.0781 13.8698 31.8958 13.9479 31.6823 13.9479Z" fill="white"/>
<path d="M37.8594 12.5417V6.22917H36.3125V12.5417C35.8542 12.7083 35.4896 12.9896 35.2084 13.3906C34.9271 13.7917 34.7865 14.2344 34.7865 14.7188C34.7865 15.2083 34.9271 15.651 35.2084 16.0469C35.4896 16.4479 35.8542 16.7292 36.3125 16.8958V18.5781H37.8594V16.8958C38.3177 16.7292 38.6823 16.4479 38.9636 16.0469C39.2448 15.651 39.3855 15.2083 39.3855 14.7188C39.3855 14.2344 39.2448 13.7917 38.9636 13.3906C38.6823 12.9896 38.3177 12.7083 37.8594 12.5417ZM37.0886 15.4896C36.875 15.4896 36.6927 15.4167 36.5417 15.2656C36.3907 15.1146 36.3125 14.9323 36.3125 14.7188C36.3125 14.5052 36.3907 14.3229 36.5417 14.1719C36.6927 14.0208 36.875 13.9479 37.0886 13.9479C37.2969 13.9479 37.4792 14.0208 37.6302 14.1719C37.7813 14.3229 37.8594 14.5052 37.8594 14.7188C37.8594 14.9323 37.7813 15.1146 37.6302 15.2656C37.4792 15.4167 37.2969 15.4896 37.0886 15.4896Z" fill="white"/>
<path d="M44.8073 10.0885C44.8021 9.59896 44.6615 9.15626 44.3802 8.75521C44.0938 8.35417 43.724 8.07292 43.2605 7.91146V6.22917H41.7188V7.91146C41.2605 8.07813 40.8907 8.35938 40.6094 8.76042C40.3334 9.15626 40.1927 9.59896 40.1927 10.0885C40.1927 10.5729 40.3334 11.0156 40.6094 11.4167C40.8907 11.8177 41.2605 12.099 41.7188 12.2656V18.5781H43.2605V12.2656C43.724 12.099 44.0938 11.8177 44.3802 11.4219C44.6615 11.0208 44.8021 10.5781 44.8073 10.0885ZM42.4896 10.8594C42.2761 10.8594 42.0938 10.7865 41.9427 10.6354C41.7917 10.4844 41.7188 10.3021 41.7188 10.0885C41.7188 9.87501 41.7917 9.69271 41.9427 9.54167C42.0938 9.39063 42.2761 9.31771 42.4896 9.31771C42.7032 9.31771 42.8855 9.39063 43.0365 9.54167C43.1875 9.69271 43.2605 9.87501 43.2605 10.0885C43.2605 10.3021 43.1875 10.4844 43.0365 10.6354C42.8855 10.7865 42.7032 10.8594 42.4896 10.8594Z" fill="white"/>
<mask id="mask1_7_239" style="mask-type:luminance" maskUnits="userSpaceOnUse" x="18" y="43" width="14" height="13">
<path d="M18.3334 43.0417H31.6667V55.3333H18.3334V43.0417Z" fill="white"/>
</mask>
<g mask="url(#mask1_7_239)">
<path d="M25.6875 43.875L26.3386 45.2656L27.1042 46.8958L30.323 47.3854C31.2084 47.5208 31.2657 47.9219 30.6303 48.5729L28.3438 50.9271L28.8698 54.1302C29.0417 55.1771 28.7292 55.4323 28.0157 55.0365L25.0938 53.4219V53.4115L25.0886 53.4219L22.1667 55.0417C21.4532 55.4375 21.1459 55.1823 21.3125 54.1354L21.8386 50.9271L19.5521 48.5781C18.9219 47.9271 18.974 47.5208 19.8594 47.3906L23.0834 46.8958L24.4948 43.8698C24.849 43.1198 25.3334 43.1094 25.6875 43.875Z" fill="white"/>
</g>
<path d="M14.2656 49.7292L14.8281 50.9323L15.4896 52.3385L18.276 52.7656C19.0416 52.8802 19.0885 53.2292 18.5416 53.7917L16.5677 55.8281L17.0208 58.599C17.1666 59.5052 16.8958 59.724 16.276 59.3802L13.7552 57.9844L13.75 57.974V57.9844L11.2239 59.3802C10.6041 59.724 10.3385 59.5052 10.4844 58.599L10.9375 55.8281L8.95831 53.7917C8.41144 53.2292 8.46352 52.8854 9.22394 52.7656L12.0156 52.3385L13.2396 49.7292C13.5416 49.0729 13.9583 49.0677 14.2656 49.7292Z" fill="white"/>
<path d="M36.948 49.7135L37.5105 50.9115L38.1719 52.3177L40.9584 52.75C41.724 52.8646 41.7709 53.2135 41.224 53.776L39.2448 55.8073L39.698 58.5833C39.849 59.4844 39.5782 59.7083 38.9584 59.3646L36.4323 57.9635V57.9583L36.4271 57.9688L33.9063 59.3646C33.2865 59.7083 33.0157 59.4896 33.1667 58.5833L33.6146 55.8125L31.6407 53.776C31.0938 53.2135 31.1407 52.8646 31.9063 52.75L34.6928 52.3229L35.9167 49.7083C36.2188 49.0573 36.6407 49.0521 36.948 49.7135Z" fill="white"/>
<mask id="mask2_7_239" style="mask-type:luminance" maskUnits="userSpaceOnUse" x="0" y="58" width="11" height="10">
<path d="M0.802124 58H10.3334V67.3333H0.802124V58Z" fill="white"/>
</mask>
<g mask="url(#mask2_7_239)">
<path d="M5.7917 58.6458L6.27087 59.6667L6.83337 60.8594L9.21357 61.224C9.86982 61.3229 9.91149 61.6198 9.44274 62.0937L7.75524 63.8177L8.14066 66.1667C8.26566 66.9375 8.03649 67.1198 7.51045 66.8281L5.34899 65.6458V65.6406L5.34378 65.6458L3.18753 66.8333C2.66149 67.125 2.43232 66.9375 2.55732 66.1667L2.94274 63.8177L1.25524 62.0937C0.791699 61.6146 0.828158 61.3229 1.48441 61.224L3.86462 60.8646L4.90628 58.6458C5.1667 58.0937 5.52607 58.0885 5.7917 58.6458Z" fill="white"/>
</g>
<mask id="mask3_7_239" style="mask-type:luminance" maskUnits="userSpaceOnUse" x="9" y="78" width="32" height="14">
<path d="M9 78H41V91.6719H9V78Z" fill="white"/>
</mask>
<g mask="url(#mask3_7_239)">
<path d="M20.2136 78.474C14.4636 79.6667 10.8542 83.0677 9.73438 87.9688C9.42188 89.2969 9.90105 89.6823 10.4948 89.8646C14.5729 91.1198 22.1302 91.5677 25.0938 91.5677C28.0573 91.5677 35.6094 91.1198 39.6875 89.8646C40.2813 89.6823 40.7604 89.2969 40.4531 87.9688C39.4219 83.4583 36.2708 80.2188 31.2969 78.8021C30.4844 79.3021 29.6146 79.7031 28.6979 79.9948C28.3906 80.9583 27.6354 81.7396 26.5833 81.7396H23.7448C22.4531 81.7396 21.375 80.6615 21.375 79.3646V79.1198L20.2136 78.474Z" fill="white"/>
</g>
<path fill-rule="evenodd" clip-rule="evenodd" d="M25.5052 58.5365C23.3802 58.4688 21.2291 59.0469 19.3698 60.2865C17.2864 61.6823 15.8281 63.7344 15.1562 66.0365C14.9739 66.0156 14.75 66.026 14.4895 66.099C13.5052 66.3802 12.7656 67.1823 12.4323 67.8958C12 68.8177 11.8177 70.0417 12.0104 71.3073C12.2031 72.5677 12.7343 73.6042 13.401 74.25C14.0625 74.8906 14.8177 75.1042 15.5677 74.9427C16.6823 74.7083 17.2343 74.5313 17.0781 73.4948L16.3229 68.4583C16.4739 65.7292 17.8854 63.1667 20.2448 61.5938C23.401 59.4844 27.5416 59.6198 30.552 61.9323C32.6458 63.5365 33.8645 65.9427 34.0052 68.4688L33.4791 71.9896C32.2968 75.2135 29.3802 77.4479 25.9948 77.7656H23.7448C23.1666 77.7656 22.6979 78.2344 22.6979 78.8125V79.3698C22.6979 79.9479 23.1666 80.4115 23.7448 80.4115H26.5833C27.1614 80.4115 27.6302 79.9479 27.6302 79.3698V79.0781C30.1823 78.4531 32.4062 76.8906 33.8541 74.7031L34.7604 74.9427C35.5052 75.1354 36.2656 74.8906 36.9323 74.2448C37.5989 73.6042 38.1302 72.5677 38.3229 71.3073C38.5104 70.0417 38.3281 68.8229 37.901 67.8958C37.4739 66.9688 36.8333 66.375 36.0989 66.1667C35.7864 66.0781 35.4531 66.0417 35.1666 66.0365C34.5573 63.9583 33.3125 62.0677 31.5104 60.6823C29.7395 59.3281 27.6354 58.6042 25.5052 58.5365Z" fill="white"/>
<path fill-rule="evenodd" clip-rule="evenodd" d="M25.0937 61.75C21.1041 61.75 17.8854 64.8594 17.8854 68.9531C17.8854 73.0521 21.1041 76.1563 25.0937 76.1563C29.0833 76.1563 32.2968 73.0469 32.2968 68.9531C32.2968 64.8594 29.0833 61.75 25.0937 61.75ZM21.6562 65.3177C22.3645 65.9948 23.6354 66.4479 25.0937 66.4479C26.5468 66.4479 27.8229 65.9948 28.5312 65.3177C29.4948 66.2292 30.0989 67.5208 30.0989 68.9531C30.0989 71.7292 27.8698 73.9583 25.0937 73.9583C22.3177 73.9583 20.0885 71.7292 20.0885 68.9531C20.0885 67.5208 20.6875 66.2292 21.6562 65.3177Z" fill="white"/>
<mask id="mask4_7_239" style="mask-type:luminance" maskUnits="userSpaceOnUse" x="39" y="58" width="11" height="10">
<path d="M39.6666 58H49.4375V67.3333H39.6666V58Z" fill="white"/>
</mask>
<g mask="url(#mask4_7_239)">
<path d="M45.276 58.6458L45.7552 59.6667L46.3177 60.8594L48.7031 61.224C49.3541 61.3229 49.3958 61.6198 48.9271 62.0938L47.2396 63.8177L47.625 66.1667C47.75 66.9375 47.5208 67.1198 46.9948 66.8281L44.8385 65.6458V65.6406L44.8333 65.6458L42.6771 66.8333C42.151 67.125 41.9166 66.9375 42.0469 66.1667L42.4323 63.8177L40.7448 62.0938C40.276 61.6198 40.3125 61.3229 40.9687 61.224L43.3489 60.8646L44.3958 58.6511C44.6562 58.0938 45.0156 58.0886 45.276 58.6458Z" fill="white"/>
</g>
</svg>
