<svg xmlns="http://www.w3.org/2000/svg"
    xmlns:xlink="http://www.w3.org/1999/xlink" width="150" viewBox="840 0 100 100" height="150" preserveAspectRatio="xMidYMid meet" version="1.0">
    <path xmlns="http://www.w3.org/2000/svg" fill="#e93b3c" d="M 895.550781 87.570312 L 860.984375 87.570312 C 855.570312 87.570312 851.167969 83.171875 851.167969 77.726562 L 851.167969 43.0625 C 851.167969 37.632812 855.554688 33.21875 860.984375 33.21875 L 895.566406 33.21875 C 900.980469 33.21875 905.382812 37.617188 905.382812 43.0625 L 905.382812 77.742188 C 905.367188 83.15625 900.964844 87.570312 895.550781 87.570312 Z M 895.550781 87.570312 " fill-opacity="1" fill-rule="nonzero"/>
    <g xmlns="http://www.w3.org/2000/svg" clip-path="url(#d149e1f4e9)"><path fill="#000000" d="M 895.550781 88.152344 L 860.984375 88.152344 C 855.257812 88.152344 850.585938 83.46875 850.585938 77.726562 L 850.585938 43.0625 C 850.585938 37.320312 855.257812 32.636719 860.984375 32.636719 L 895.566406 32.636719 C 901.292969 32.636719 905.960938 37.320312 905.960938 43.0625 L 905.960938 77.742188 C 905.945312 83.46875 901.277344 88.152344 895.550781 88.152344 Z M 860.984375 33.800781 C 855.886719 33.800781 851.746094 37.949219 851.746094 43.0625 L 851.746094 77.742188 C 851.746094 82.839844 855.886719 86.988281 860.984375 86.988281 L 895.566406 86.988281 C 900.664062 86.988281 904.804688 82.839844 904.804688 77.726562 L 904.804688 43.0625 C 904.804688 37.949219 900.664062 33.800781 895.566406 33.800781 Z M 860.984375 33.800781 " fill-opacity="1" fill-rule="nonzero"/></g>
    <path xmlns="http://www.w3.org/2000/svg" fill="#000000" d="M 869.726562 60.394531 C 869.726562 55.664062 873.546875 51.828125 878.265625 51.828125 C 882.984375 51.828125 886.808594 55.664062 886.808594 60.394531 C 886.808594 65.125 882.984375 68.960938 878.265625 68.960938 C 873.546875 68.960938 869.726562 65.125 869.726562 60.394531 Z M 869.726562 60.394531 " fill-opacity="1" fill-rule="nonzero"/>
    <path xmlns="http://www.w3.org/2000/svg" fill="#54b3dc" d="M 882.554688 63.332031 C 881.609375 64.410156 880.238281 65.09375 878.695312 65.09375 C 875.867188 65.09375 873.566406 62.785156 873.566406 59.945312 C 873.566406 58.304688 874.34375 56.824219 875.535156 55.894531 L 920.316406 18.410156 L 926.574219 26.546875 Z M 882.554688 63.332031 " fill-opacity="1" fill-rule="nonzero"/>
    <path xmlns="http://www.w3.org/2000/svg" fill="#000000" d="M 878.695312 65.671875 C 875.550781 65.671875 872.984375 63.101562 872.984375 59.945312 C 872.984375 58.171875 873.78125 56.527344 875.1875 55.429688 L 919.953125 17.980469 C 920.066406 17.878906 920.234375 17.828125 920.382812 17.847656 C 920.53125 17.863281 920.679688 17.945312 920.777344 18.0625 L 927.035156 26.195312 C 927.21875 26.445312 927.1875 26.792969 926.953125 26.992188 L 882.953125 63.746094 C 881.875 64.976562 880.320312 65.671875 878.695312 65.671875 Z M 920.214844 19.242188 L 875.917969 56.34375 C 874.789062 57.222656 874.144531 58.535156 874.144531 59.945312 C 874.144531 62.46875 876.179688 64.511719 878.695312 64.511719 C 880.003906 64.511719 881.246094 63.945312 882.109375 62.949219 C 882.125 62.933594 882.140625 62.902344 882.171875 62.882812 L 925.777344 26.460938 Z M 920.214844 19.242188 " fill-opacity="1" fill-rule="nonzero"/>
    <path xmlns="http://www.w3.org/2000/svg" fill="#fada27" d="M 913.609375 22.144531 C 913.609375 16.832031 917.898438 12.535156 923.195312 12.535156 C 928.492188 12.535156 932.78125 16.832031 932.78125 22.144531 C 932.78125 27.457031 928.492188 31.757812 923.195312 31.757812 C 917.898438 31.757812 913.609375 27.457031 913.609375 22.144531 Z M 861.84375 40.058594 C 861.84375 41.75 860.488281 43.113281 858.796875 43.113281 C 857.109375 43.113281 855.753906 41.75 855.753906 40.058594 C 855.753906 38.363281 857.109375 37.003906 858.796875 37.003906 C 860.488281 37.003906 861.84375 38.382812 861.84375 40.058594 Z M 858.796875 77.726562 C 857.109375 77.726562 855.753906 79.085938 855.753906 80.78125 C 855.753906 82.472656 857.109375 83.835938 858.796875 83.835938 C 860.488281 83.835938 861.84375 82.457031 861.84375 80.78125 C 861.84375 79.085938 860.46875 77.726562 858.796875 77.726562 Z M 898.613281 77.726562 C 896.925781 77.726562 895.566406 79.085938 895.566406 80.78125 C 895.566406 82.472656 896.925781 83.835938 898.613281 83.835938 C 900.300781 83.835938 901.660156 82.472656 901.660156 80.78125 C 901.660156 79.085938 900.285156 77.726562 898.613281 77.726562 Z M 898.613281 77.726562 " fill-opacity="1" fill-rule="nonzero"/>
    <g xmlns="http://www.w3.org/2000/svg" clip-path="url(#9af5dd2bff)"><path fill="#000000" d="M 858.796875 43.695312 C 856.796875 43.695312 855.171875 42.066406 855.171875 40.058594 C 855.171875 38.050781 856.796875 36.421875 858.796875 36.421875 C 860.800781 36.421875 862.425781 38.050781 862.425781 40.058594 C 862.425781 42.066406 860.800781 43.695312 858.796875 43.695312 Z M 858.796875 37.585938 C 857.441406 37.585938 856.332031 38.695312 856.332031 40.058594 C 856.332031 41.417969 857.441406 42.53125 858.796875 42.53125 C 860.15625 42.53125 861.265625 41.417969 861.265625 40.058594 C 861.265625 38.695312 860.15625 37.585938 858.796875 37.585938 Z M 858.796875 84.398438 C 856.796875 84.398438 855.171875 82.773438 855.171875 80.765625 C 855.171875 78.753906 856.796875 77.128906 858.796875 77.128906 C 860.800781 77.128906 862.425781 78.753906 862.425781 80.765625 C 862.425781 82.773438 860.800781 84.398438 858.796875 84.398438 Z M 858.796875 78.308594 C 857.441406 78.308594 856.332031 79.417969 856.332031 80.78125 C 856.332031 82.140625 857.441406 83.253906 858.796875 83.253906 C 860.15625 83.253906 861.265625 82.140625 861.265625 80.78125 C 861.265625 79.402344 860.15625 78.308594 858.796875 78.308594 Z M 898.613281 84.398438 C 896.609375 84.398438 894.988281 82.773438 894.988281 80.765625 C 894.988281 78.753906 896.609375 77.128906 898.613281 77.128906 C 900.617188 77.128906 902.238281 78.753906 902.238281 80.765625 C 902.238281 82.773438 900.617188 84.398438 898.613281 84.398438 Z M 898.613281 78.308594 C 897.253906 78.308594 896.144531 79.417969 896.144531 80.78125 C 896.144531 82.140625 897.253906 83.253906 898.613281 83.253906 C 899.96875 83.253906 901.078125 82.140625 901.078125 80.78125 C 901.078125 79.402344 899.96875 78.308594 898.613281 78.308594 Z M 923.195312 32.339844 C 917.585938 32.339844 913.03125 27.773438 913.03125 22.144531 C 913.03125 16.519531 917.585938 11.953125 923.195312 11.953125 C 928.808594 11.953125 933.359375 16.519531 933.359375 22.144531 C 933.359375 27.773438 928.808594 32.339844 923.195312 32.339844 Z M 923.195312 13.113281 C 918.230469 13.113281 914.191406 17.164062 914.191406 22.144531 C 914.191406 27.125 918.230469 31.175781 923.195312 31.175781 C 928.164062 31.175781 932.203125 27.125 932.203125 22.144531 C 932.203125 17.164062 928.164062 13.113281 923.195312 13.113281 Z M 923.195312 13.113281 " fill-opacity="1" fill-rule="nonzero"/></g>
</svg>