<svg xmlns="http://www.w3.org/2000/svg"
    xmlns:xlink="http://www.w3.org/1999/xlink" width="320" zoomAndPan="magnify" viewBox="39 38.5 320 141" height="141" preserveAspectRatio="xMidYMid meet" version="1.0">
    <defs>
        <clipPath id="28a5f7959c">
            <path d="M 38.351562 37.988281 L 359.765625 37.988281 L 359.765625 179.589844 L 38.351562 179.589844 Z M 38.351562 37.988281 " clip-rule="nonzero"/>
        </clipPath>
    </defs>
    <g clip-path="url(#28a5f7959c)">
        <path fill="#231f20" d="M 342.253906 179.652344 L 342.253906 178.582031 C 342.253906 169.699219 349.453125 162.492188 358.324219 162.492188 L 359.394531 162.492188 L 359.394531 55.152344 L 358.324219 55.152344 C 349.453125 55.152344 342.253906 47.941406 342.253906 39.058594 L 342.253906 37.988281 L 55.929688 37.988281 L 55.929688 39.058594 C 55.929688 47.941406 48.730469 55.152344 39.859375 55.152344 L 38.789062 55.152344 L 38.789062 162.492188 L 39.859375 162.492188 C 48.730469 162.492188 55.929688 169.699219 55.929688 178.582031 L 55.929688 179.652344 Z M 40.929688 160.367188 L 40.929688 57.273438 C 50.121094 56.738281 57.515625 49.335938 58.050781 40.132812 L 340.15625 40.132812 C 340.691406 49.335938 348.082031 56.738281 357.273438 57.273438 L 357.273438 160.386719 C 348.082031 160.925781 340.691406 168.324219 340.15625 177.53125 L 58.050781 177.53125 C 57.515625 168.324219 50.121094 160.925781 40.929688 160.386719 Z M 40.929688 160.367188 " fill-opacity="1" fill-rule="nonzero"/>
    </g>
    <path fill="#231f20" d="M 235.976562 48.457031 L 242.40625 48.457031 C 242.855469 48.457031 243.21875 48.09375 243.21875 47.640625 C 243.21875 47.191406 242.855469 46.828125 242.40625 46.828125 L 235.976562 46.828125 C 235.527344 46.828125 235.164062 47.191406 235.164062 47.640625 C 235.164062 48.09375 235.527344 48.457031 235.976562 48.457031 Z M 235.976562 48.457031 " fill-opacity="1" fill-rule="nonzero"/>
    <path fill="#231f20" d="M 223.121094 48.457031 L 229.550781 48.457031 C 230 48.457031 230.363281 48.09375 230.363281 47.640625 C 230.363281 47.191406 230 46.828125 229.550781 46.828125 L 223.121094 46.828125 C 222.671875 46.828125 222.308594 47.191406 222.308594 47.640625 C 222.308594 48.09375 222.671875 48.457031 223.121094 48.457031 Z M 223.121094 48.457031 " fill-opacity="1" fill-rule="nonzero"/>
    <path fill="#231f20" d="M 227.363281 170 C 227.363281 170.449219 227.730469 170.816406 228.179688 170.816406 L 234.605469 170.816406 C 235.058594 170.816406 235.421875 170.449219 235.421875 170 C 235.421875 169.550781 235.058594 169.183594 234.605469 169.183594 L 228.179688 169.183594 C 227.730469 169.183594 227.363281 169.550781 227.363281 170 Z M 227.363281 170 " fill-opacity="1" fill-rule="nonzero"/>
    <path fill="#231f20" d="M 240.21875 170 C 240.21875 170.449219 240.585938 170.816406 241.035156 170.816406 L 247.460938 170.816406 C 247.914062 170.816406 248.277344 170.449219 248.277344 170 C 248.277344 169.550781 247.914062 169.183594 247.460938 169.183594 L 241.035156 169.183594 C 240.585938 169.183594 240.21875 169.550781 240.21875 170 Z M 240.21875 170 " fill-opacity="1" fill-rule="nonzero"/>
    <path fill="#231f20" d="M 265.933594 170 C 265.933594 170.449219 266.296875 170.816406 266.746094 170.816406 L 273.175781 170.816406 C 273.625 170.816406 273.988281 170.449219 273.988281 170 C 273.988281 169.550781 273.625 169.183594 273.175781 169.183594 L 266.746094 169.183594 C 266.296875 169.183594 265.933594 169.550781 265.933594 170 Z M 265.933594 170 " fill-opacity="1" fill-rule="nonzero"/>
    <path fill="#231f20" d="M 261.691406 48.457031 L 268.117188 48.457031 C 268.566406 48.457031 268.933594 48.09375 268.933594 47.640625 C 268.933594 47.191406 268.566406 46.828125 268.117188 46.828125 L 261.691406 46.828125 C 261.238281 46.828125 260.875 47.191406 260.875 47.640625 C 260.875 48.09375 261.238281 48.457031 261.691406 48.457031 Z M 261.691406 48.457031 " fill-opacity="1" fill-rule="nonzero"/>
    <path fill="#231f20" d="M 248.835938 48.457031 L 255.261719 48.457031 C 255.710938 48.457031 256.078125 48.09375 256.078125 47.640625 C 256.078125 47.191406 255.710938 46.828125 255.261719 46.828125 L 248.835938 46.828125 C 248.382812 46.828125 248.019531 47.191406 248.019531 47.640625 C 248.019531 48.09375 248.382812 48.457031 248.835938 48.457031 Z M 248.835938 48.457031 " fill-opacity="1" fill-rule="nonzero"/>
    <path fill="#231f20" d="M 253.078125 170 C 253.078125 170.449219 253.441406 170.816406 253.890625 170.816406 L 260.320312 170.816406 C 260.769531 170.816406 261.132812 170.449219 261.132812 170 C 261.132812 169.550781 260.769531 169.183594 260.320312 169.183594 L 253.890625 169.183594 C 253.441406 169.183594 253.078125 169.550781 253.078125 170 Z M 253.078125 170 " fill-opacity="1" fill-rule="nonzero"/>
    <path fill="#231f20" d="M 214.507812 170 C 214.507812 170.449219 214.871094 170.816406 215.324219 170.816406 L 221.75 170.816406 C 222.199219 170.816406 222.566406 170.449219 222.566406 170 C 222.566406 169.550781 222.199219 169.183594 221.75 169.183594 L 215.324219 169.183594 C 214.871094 169.183594 214.507812 169.550781 214.507812 170 Z M 214.507812 170 " fill-opacity="1" fill-rule="nonzero"/>
    <path fill="#231f20" d="M 171.699219 48.457031 L 178.125 48.457031 C 178.574219 48.457031 178.941406 48.09375 178.941406 47.640625 C 178.941406 47.191406 178.574219 46.828125 178.125 46.828125 L 171.699219 46.828125 C 171.246094 46.828125 170.882812 47.191406 170.882812 47.640625 C 170.882812 48.09375 171.246094 48.457031 171.699219 48.457031 Z M 171.699219 48.457031 " fill-opacity="1" fill-rule="nonzero"/>
    <path fill="#231f20" d="M 163.085938 170 C 163.085938 170.449219 163.449219 170.816406 163.898438 170.816406 L 170.328125 170.816406 C 170.777344 170.816406 171.140625 170.449219 171.140625 170 C 171.140625 169.550781 170.777344 169.183594 170.328125 169.183594 L 163.898438 169.183594 C 163.449219 169.183594 163.085938 169.550781 163.085938 170 Z M 163.085938 170 " fill-opacity="1" fill-rule="nonzero"/>
    <path fill="#231f20" d="M 150.226562 170 C 150.226562 170.449219 150.59375 170.816406 151.042969 170.816406 L 157.46875 170.816406 C 157.921875 170.816406 158.285156 170.449219 158.285156 170 C 158.285156 169.550781 157.921875 169.183594 157.46875 169.183594 L 151.042969 169.183594 C 150.59375 169.183594 150.226562 169.550781 150.226562 170 Z M 150.226562 170 " fill-opacity="1" fill-rule="nonzero"/>
    <path fill="#231f20" d="M 175.941406 170 C 175.941406 170.449219 176.304688 170.816406 176.753906 170.816406 L 183.183594 170.816406 C 183.632812 170.816406 183.996094 170.449219 183.996094 170 C 183.996094 169.550781 183.632812 169.183594 183.183594 169.183594 L 176.753906 169.183594 C 176.304688 169.183594 175.941406 169.550781 175.941406 170 Z M 175.941406 170 " fill-opacity="1" fill-rule="nonzero"/>
    <path fill="#231f20" d="M 274.546875 48.457031 L 280.972656 48.457031 C 281.425781 48.457031 281.789062 48.09375 281.789062 47.640625 C 281.789062 47.191406 281.425781 46.828125 280.972656 46.828125 L 274.546875 46.828125 C 274.097656 46.828125 273.730469 47.191406 273.730469 47.640625 C 273.730469 48.09375 274.097656 48.457031 274.546875 48.457031 Z M 274.546875 48.457031 " fill-opacity="1" fill-rule="nonzero"/>
    <path fill="#231f20" d="M 184.554688 48.457031 L 190.980469 48.457031 C 191.433594 48.457031 191.796875 48.09375 191.796875 47.640625 C 191.796875 47.191406 191.433594 46.828125 190.980469 46.828125 L 184.554688 46.828125 C 184.105469 46.828125 183.738281 47.191406 183.738281 47.640625 C 183.738281 48.09375 184.105469 48.457031 184.554688 48.457031 Z M 184.554688 48.457031 " fill-opacity="1" fill-rule="nonzero"/>
    <path fill="#231f20" d="M 210.265625 48.457031 L 216.695312 48.457031 C 217.144531 48.457031 217.507812 48.09375 217.507812 47.640625 C 217.507812 47.191406 217.144531 46.828125 216.695312 46.828125 L 210.265625 46.828125 C 209.816406 46.828125 209.453125 47.191406 209.453125 47.640625 C 209.453125 48.09375 209.816406 48.457031 210.265625 48.457031 Z M 210.265625 48.457031 " fill-opacity="1" fill-rule="nonzero"/>
    <path fill="#231f20" d="M 201.652344 170 C 201.652344 170.449219 202.015625 170.816406 202.464844 170.816406 L 208.894531 170.816406 C 209.34375 170.816406 209.707031 170.449219 209.707031 170 C 209.707031 169.550781 209.34375 169.183594 208.894531 169.183594 L 202.464844 169.183594 C 202.015625 169.183594 201.652344 169.550781 201.652344 170 Z M 201.652344 170 " fill-opacity="1" fill-rule="nonzero"/>
    <path fill="#231f20" d="M 197.410156 48.457031 L 203.835938 48.457031 C 204.289062 48.457031 204.652344 48.09375 204.652344 47.640625 C 204.652344 47.191406 204.289062 46.828125 203.835938 46.828125 L 197.410156 46.828125 C 196.960938 46.828125 196.59375 47.191406 196.59375 47.640625 C 196.59375 48.09375 196.960938 48.457031 197.410156 48.457031 Z M 197.410156 48.457031 " fill-opacity="1" fill-rule="nonzero"/>
    <path fill="#231f20" d="M 188.796875 170 C 188.796875 170.449219 189.160156 170.816406 189.609375 170.816406 L 196.039062 170.816406 C 196.488281 170.816406 196.851562 170.449219 196.851562 170 C 196.851562 169.550781 196.488281 169.183594 196.039062 169.183594 L 189.609375 169.183594 C 189.160156 169.183594 188.796875 169.550781 188.796875 170 Z M 188.796875 170 " fill-opacity="1" fill-rule="nonzero"/>
    <path fill="#231f20" d="M 158.839844 48.457031 L 165.269531 48.457031 C 165.71875 48.457031 166.082031 48.09375 166.082031 47.640625 C 166.082031 47.191406 165.71875 46.828125 165.269531 46.828125 L 158.839844 46.828125 C 158.390625 46.828125 158.027344 47.191406 158.027344 47.640625 C 158.027344 48.09375 158.390625 48.457031 158.839844 48.457031 Z M 158.839844 48.457031 " fill-opacity="1" fill-rule="nonzero"/>
    <path fill="#231f20" d="M 349.753906 95.828125 C 349.304688 95.828125 348.941406 96.195312 348.941406 96.644531 L 348.941406 103.082031 C 348.941406 103.53125 349.304688 103.898438 349.753906 103.898438 C 350.203125 103.898438 350.570312 103.53125 350.570312 103.082031 L 350.570312 96.644531 C 350.570312 96.195312 350.203125 95.828125 349.753906 95.828125 Z M 349.753906 95.828125 " fill-opacity="1" fill-rule="nonzero"/>
    <path fill="#231f20" d="M 338.417969 161.054688 C 338.121094 161.394531 338.164062 161.890625 338.484375 162.191406 C 338.632812 162.320312 338.828125 162.382812 339.019531 162.382812 C 339.234375 162.382812 339.46875 162.296875 339.621094 162.105469 C 340.992188 160.539062 342.554688 159.144531 344.269531 157.984375 C 344.632812 157.726562 344.71875 157.234375 344.484375 156.867188 C 344.226562 156.503906 343.734375 156.417969 343.367188 156.65625 C 341.546875 157.898438 339.875 159.378906 338.417969 161.054688 Z M 338.417969 161.054688 " fill-opacity="1" fill-rule="nonzero"/>
    <path fill="#231f20" d="M 349.753906 82.957031 C 349.304688 82.957031 348.941406 83.320312 348.941406 83.773438 L 348.941406 90.207031 C 348.941406 90.660156 349.304688 91.023438 349.753906 91.023438 C 350.203125 91.023438 350.570312 90.660156 350.570312 90.207031 L 350.570312 83.773438 C 350.570312 83.320312 350.203125 82.957031 349.753906 82.957031 Z M 349.753906 82.957031 " fill-opacity="1" fill-rule="nonzero"/>
    <path fill="#231f20" d="M 349.753906 70.082031 C 349.304688 70.082031 348.941406 70.449219 348.941406 70.898438 L 348.941406 77.335938 C 348.941406 77.785156 349.304688 78.152344 349.753906 78.152344 C 350.203125 78.152344 350.570312 77.785156 350.570312 77.335938 L 350.570312 70.898438 C 350.570312 70.449219 350.203125 70.082031 349.753906 70.082031 Z M 349.753906 70.082031 " fill-opacity="1" fill-rule="nonzero"/>
    <path fill="#231f20" d="M 344.546875 61.738281 C 345.941406 62.597656 347.417969 63.324219 348.941406 63.90625 L 348.941406 64.460938 C 348.941406 64.914062 349.304688 65.277344 349.753906 65.277344 C 350.203125 65.277344 350.570312 64.914062 350.570312 64.460938 L 350.570312 62.769531 L 350.03125 62.574219 C 348.425781 61.996094 346.863281 61.265625 345.40625 60.363281 C 345.039062 60.128906 344.527344 60.257812 344.289062 60.621094 C 344.054688 61.007812 344.183594 61.5 344.546875 61.738281 Z M 344.546875 61.738281 " fill-opacity="1" fill-rule="nonzero"/>
    <path fill="#231f20" d="M 349.753906 108.703125 C 349.304688 108.703125 348.941406 109.066406 348.941406 109.519531 L 348.941406 115.953125 C 348.941406 116.40625 349.304688 116.769531 349.753906 116.769531 C 350.203125 116.769531 350.570312 116.40625 350.570312 115.953125 L 350.570312 109.519531 C 350.570312 109.066406 350.203125 108.703125 349.753906 108.703125 Z M 349.753906 108.703125 " fill-opacity="1" fill-rule="nonzero"/>
    <path fill="#231f20" d="M 349.753906 147.320312 C 349.304688 147.320312 348.941406 147.6875 348.941406 148.136719 L 348.941406 153.824219 C 348.726562 154.035156 348.617188 154.378906 348.746094 154.679688 C 348.875 155.003906 349.175781 155.195312 349.496094 155.195312 C 349.582031 155.195312 349.691406 155.195312 349.777344 155.152344 L 350.546875 154.875 L 350.546875 148.136719 C 350.546875 147.6875 350.183594 147.320312 349.734375 147.320312 Z M 349.753906 147.320312 " fill-opacity="1" fill-rule="nonzero"/>
    <path fill="#231f20" d="M 145.984375 48.457031 L 152.414062 48.457031 C 152.863281 48.457031 153.226562 48.09375 153.226562 47.640625 C 153.226562 47.191406 152.863281 46.828125 152.414062 46.828125 L 145.984375 46.828125 C 145.535156 46.828125 145.171875 47.191406 145.171875 47.640625 C 145.171875 48.09375 145.535156 48.457031 145.984375 48.457031 Z M 145.984375 48.457031 " fill-opacity="1" fill-rule="nonzero"/>
    <path fill="#231f20" d="M 349.753906 121.574219 C 349.304688 121.574219 348.941406 121.941406 348.941406 122.390625 L 348.941406 128.828125 C 348.941406 129.277344 349.304688 129.644531 349.753906 129.644531 C 350.203125 129.644531 350.570312 129.277344 350.570312 128.828125 L 350.570312 122.390625 C 350.570312 121.941406 350.203125 121.574219 349.753906 121.574219 Z M 349.753906 121.574219 " fill-opacity="1" fill-rule="nonzero"/>
    <path fill="#231f20" d="M 349.753906 134.449219 C 349.304688 134.449219 348.941406 134.8125 348.941406 135.265625 L 348.941406 141.699219 C 348.941406 142.152344 349.304688 142.515625 349.753906 142.515625 C 350.203125 142.515625 350.570312 142.152344 350.570312 141.699219 L 350.570312 135.265625 C 350.570312 134.8125 350.203125 134.449219 349.753906 134.449219 Z M 349.753906 134.449219 " fill-opacity="1" fill-rule="nonzero"/>
    <path fill="#231f20" d="M 313.113281 48.457031 L 319.542969 48.457031 C 319.992188 48.457031 320.355469 48.09375 320.355469 47.640625 C 320.355469 47.191406 319.992188 46.828125 319.542969 46.828125 L 313.113281 46.828125 C 312.664062 46.828125 312.300781 47.191406 312.300781 47.640625 C 312.300781 48.09375 312.664062 48.457031 313.113281 48.457031 Z M 313.113281 48.457031 " fill-opacity="1" fill-rule="nonzero"/>
    <path fill="#231f20" d="M 291.644531 170 C 291.644531 170.449219 292.007812 170.816406 292.460938 170.816406 L 298.886719 170.816406 C 299.335938 170.816406 299.703125 170.449219 299.703125 170 C 299.703125 169.550781 299.335938 169.183594 298.886719 169.183594 L 292.460938 169.183594 C 292.007812 169.183594 291.644531 169.550781 291.644531 170 Z M 291.644531 170 " fill-opacity="1" fill-rule="nonzero"/>
    <path fill="#231f20" d="M 300.257812 48.457031 L 306.6875 48.457031 C 307.136719 48.457031 307.5 48.09375 307.5 47.640625 C 307.5 47.191406 307.136719 46.828125 306.6875 46.828125 L 300.257812 46.828125 C 299.808594 46.828125 299.445312 47.191406 299.445312 47.640625 C 299.445312 48.09375 299.808594 48.457031 300.257812 48.457031 Z M 300.257812 48.457031 " fill-opacity="1" fill-rule="nonzero"/>
    <path fill="#231f20" d="M 287.402344 48.457031 L 293.832031 48.457031 C 294.28125 48.457031 294.644531 48.09375 294.644531 47.640625 C 294.644531 47.191406 294.28125 46.828125 293.832031 46.828125 L 287.402344 46.828125 C 286.953125 46.828125 286.589844 47.191406 286.589844 47.640625 C 286.589844 48.09375 286.953125 48.457031 287.402344 48.457031 Z M 287.402344 48.457031 " fill-opacity="1" fill-rule="nonzero"/>
    <path fill="#231f20" d="M 339.382812 57.617188 C 339.535156 57.769531 339.746094 57.855469 339.960938 57.855469 C 340.175781 57.855469 340.371094 57.769531 340.519531 57.617188 C 340.839844 57.296875 340.839844 56.804688 340.519531 56.480469 C 339.0625 55 337.796875 53.328125 336.75 51.523438 C 336.535156 51.140625 336.042969 51.011719 335.65625 51.226562 C 335.269531 51.4375 335.140625 51.933594 335.355469 52.320312 C 336.46875 54.230469 337.820312 56.007812 339.363281 57.597656 Z M 339.382812 57.617188 " fill-opacity="1" fill-rule="nonzero"/>
    <path fill="#231f20" d="M 304.5 170 C 304.5 170.449219 304.863281 170.816406 305.316406 170.816406 L 311.742188 170.816406 C 312.191406 170.816406 312.558594 170.449219 312.558594 170 C 312.558594 169.550781 312.191406 169.183594 311.742188 169.183594 L 305.316406 169.183594 C 304.863281 169.183594 304.5 169.550781 304.5 170 Z M 304.5 170 " fill-opacity="1" fill-rule="nonzero"/>
    <path fill="#231f20" d="M 330.214844 170 C 330.214844 170.449219 330.578125 170.816406 331.027344 170.816406 L 334.667969 170.816406 L 334.863281 170.277344 C 335.226562 169.269531 335.65625 168.261719 336.148438 167.296875 C 336.339844 166.910156 336.191406 166.417969 335.804688 166.222656 C 335.417969 166.007812 334.925781 166.179688 334.734375 166.566406 C 334.285156 167.425781 333.898438 168.324219 333.554688 169.226562 L 331.046875 169.226562 C 330.597656 169.226562 330.234375 169.59375 330.234375 170.042969 Z M 330.214844 170 " fill-opacity="1" fill-rule="nonzero"/>
    <path fill="#231f20" d="M 325.96875 48.457031 L 332.398438 48.457031 C 332.847656 48.457031 333.210938 48.09375 333.210938 47.640625 C 333.210938 47.191406 332.847656 46.828125 332.398438 46.828125 L 325.96875 46.828125 C 325.519531 46.828125 325.15625 47.191406 325.15625 47.640625 C 325.15625 48.09375 325.519531 48.457031 325.96875 48.457031 Z M 325.96875 48.457031 " fill-opacity="1" fill-rule="nonzero"/>
    <path fill="#231f20" d="M 278.789062 170 C 278.789062 170.449219 279.152344 170.816406 279.601562 170.816406 L 286.03125 170.816406 C 286.480469 170.816406 286.84375 170.449219 286.84375 170 C 286.84375 169.550781 286.480469 169.183594 286.03125 169.183594 L 279.601562 169.183594 C 279.152344 169.183594 278.789062 169.550781 278.789062 170 Z M 278.789062 170 " fill-opacity="1" fill-rule="nonzero"/>
    <path fill="#231f20" d="M 317.355469 170 C 317.355469 170.449219 317.722656 170.816406 318.171875 170.816406 L 324.597656 170.816406 C 325.050781 170.816406 325.414062 170.449219 325.414062 170 C 325.414062 169.550781 325.050781 169.183594 324.597656 169.183594 L 318.171875 169.183594 C 317.722656 169.183594 317.355469 169.550781 317.355469 170 Z M 317.355469 170 " fill-opacity="1" fill-rule="nonzero"/>
    <path fill="#231f20" d="M 56.355469 58.796875 C 56.078125 58.457031 55.585938 58.390625 55.222656 58.667969 C 53.59375 59.957031 51.792969 61.03125 49.90625 61.886719 C 49.5 62.058594 49.328125 62.554688 49.5 62.960938 C 49.628906 63.261719 49.929688 63.433594 50.230469 63.433594 C 50.335938 63.433594 50.445312 63.410156 50.550781 63.367188 C 52.566406 62.46875 54.472656 61.332031 56.207031 59.957031 C 56.550781 59.679688 56.613281 59.183594 56.335938 58.820312 Z M 56.355469 58.796875 " fill-opacity="1" fill-rule="nonzero"/>
    <path fill="#231f20" d="M 48.429688 118.507812 C 47.980469 118.507812 47.613281 118.871094 47.613281 119.324219 L 47.613281 125.757812 C 47.613281 126.210938 47.980469 126.574219 48.429688 126.574219 C 48.878906 126.574219 49.242188 126.210938 49.242188 125.757812 L 49.242188 119.324219 C 49.242188 118.871094 48.878906 118.507812 48.429688 118.507812 Z M 48.429688 118.507812 " fill-opacity="1" fill-rule="nonzero"/>
    <path fill="#231f20" d="M 48.429688 131.378906 C 47.980469 131.378906 47.613281 131.746094 47.613281 132.195312 L 47.613281 138.632812 C 47.613281 139.082031 47.980469 139.449219 48.429688 139.449219 C 48.878906 139.449219 49.242188 139.082031 49.242188 138.632812 L 49.242188 132.195312 C 49.242188 131.746094 48.878906 131.378906 48.429688 131.378906 Z M 48.429688 131.378906 " fill-opacity="1" fill-rule="nonzero"/>
    <path fill="#231f20" d="M 48.429688 144.253906 C 47.980469 144.253906 47.613281 144.617188 47.613281 145.070312 L 47.613281 151.503906 C 47.613281 151.957031 47.980469 152.320312 48.429688 152.320312 C 48.878906 152.320312 49.242188 151.957031 49.242188 151.503906 L 49.242188 145.070312 C 49.242188 144.617188 48.878906 144.253906 48.429688 144.253906 Z M 48.429688 144.253906 " fill-opacity="1" fill-rule="nonzero"/>
    <path fill="#231f20" d="M 60.234375 55.539062 C 60.472656 55.539062 60.707031 55.429688 60.878906 55.214844 C 62.226562 53.457031 63.363281 51.546875 64.222656 49.507812 C 64.390625 49.101562 64.222656 48.628906 63.792969 48.457031 C 63.386719 48.285156 62.914062 48.457031 62.742188 48.886719 C 61.929688 50.796875 60.855469 52.597656 59.59375 54.25 C 59.3125 54.59375 59.378906 55.109375 59.742188 55.386719 C 59.894531 55.496094 60.0625 55.558594 60.234375 55.558594 Z M 60.234375 55.539062 " fill-opacity="1" fill-rule="nonzero"/>
    <path fill="#231f20" d="M 48.429688 105.632812 C 47.980469 105.632812 47.613281 106 47.613281 106.449219 L 47.613281 112.886719 C 47.613281 113.335938 47.980469 113.703125 48.429688 113.703125 C 48.878906 113.703125 49.242188 113.335938 49.242188 112.886719 L 49.242188 106.449219 C 49.242188 106 48.878906 105.632812 48.429688 105.632812 Z M 48.429688 105.632812 " fill-opacity="1" fill-rule="nonzero"/>
    <path fill="#231f20" d="M 48.429688 79.890625 C 47.980469 79.890625 47.613281 80.253906 47.613281 80.703125 L 47.613281 87.140625 C 47.613281 87.589844 47.980469 87.957031 48.429688 87.957031 C 48.878906 87.957031 49.242188 87.589844 49.242188 87.140625 L 49.242188 80.703125 C 49.242188 80.253906 48.878906 79.890625 48.429688 79.890625 Z M 48.429688 79.890625 " fill-opacity="1" fill-rule="nonzero"/>
    <path fill="#231f20" d="M 137.371094 170 C 137.371094 170.449219 137.734375 170.816406 138.1875 170.816406 L 144.613281 170.816406 C 145.0625 170.816406 145.429688 170.449219 145.429688 170 C 145.429688 169.550781 145.0625 169.183594 144.613281 169.183594 L 138.1875 169.183594 C 137.734375 169.183594 137.371094 169.550781 137.371094 170 Z M 137.371094 170 " fill-opacity="1" fill-rule="nonzero"/>
    <path fill="#231f20" d="M 52.113281 155.046875 C 51.730469 154.832031 51.234375 154.980469 51.023438 155.390625 C 50.808594 155.773438 50.957031 156.269531 51.363281 156.484375 C 53.207031 157.449219 54.921875 158.628906 56.464844 160.023438 C 56.613281 160.152344 56.808594 160.238281 57 160.238281 C 57.214844 160.238281 57.449219 160.152344 57.601562 159.980469 C 57.898438 159.660156 57.855469 159.144531 57.535156 158.84375 C 55.886719 157.363281 54.066406 156.097656 52.113281 155.066406 Z M 52.113281 155.046875 " fill-opacity="1" fill-rule="nonzero"/>
    <path fill="#231f20" d="M 48.429688 92.761719 C 47.980469 92.761719 47.613281 93.125 47.613281 93.578125 L 47.613281 100.011719 C 47.613281 100.464844 47.980469 100.828125 48.429688 100.828125 C 48.878906 100.828125 49.242188 100.464844 49.242188 100.011719 L 49.242188 93.578125 C 49.242188 93.125 48.878906 92.761719 48.429688 92.761719 Z M 48.429688 92.761719 " fill-opacity="1" fill-rule="nonzero"/>
    <path fill="#231f20" d="M 48.429688 67.015625 C 47.980469 67.015625 47.613281 67.378906 47.613281 67.832031 L 47.613281 74.265625 C 47.613281 74.71875 47.980469 75.082031 48.429688 75.082031 C 48.878906 75.082031 49.242188 74.71875 49.242188 74.265625 L 49.242188 67.832031 C 49.242188 67.378906 48.878906 67.015625 48.429688 67.015625 Z M 48.429688 67.015625 " fill-opacity="1" fill-rule="nonzero"/>
    <path fill="#231f20" d="M 60.769531 163.585938 C 60.40625 163.84375 60.300781 164.335938 60.558594 164.699219 C 61.714844 166.4375 62.65625 168.304688 63.34375 170.257812 L 63.535156 170.792969 L 67.476562 170.792969 C 67.925781 170.792969 68.292969 170.429688 68.292969 169.976562 C 68.292969 169.527344 67.925781 169.164062 67.476562 169.164062 L 64.671875 169.164062 C 63.964844 167.273438 63.019531 165.472656 61.90625 163.777344 C 61.648438 163.414062 61.15625 163.304688 60.792969 163.5625 Z M 60.769531 163.585938 " fill-opacity="1" fill-rule="nonzero"/>
    <path fill="#231f20" d="M 85.949219 170 C 85.949219 170.449219 86.3125 170.816406 86.761719 170.816406 L 93.191406 170.816406 C 93.640625 170.816406 94.003906 170.449219 94.003906 170 C 94.003906 169.550781 93.640625 169.183594 93.191406 169.183594 L 86.761719 169.183594 C 86.3125 169.183594 85.949219 169.550781 85.949219 170 Z M 85.949219 170 " fill-opacity="1" fill-rule="nonzero"/>
    <path fill="#231f20" d="M 98.804688 170 C 98.804688 170.449219 99.167969 170.816406 99.617188 170.816406 L 106.046875 170.816406 C 106.496094 170.816406 106.859375 170.449219 106.859375 170 C 106.859375 169.550781 106.496094 169.183594 106.046875 169.183594 L 99.617188 169.183594 C 99.167969 169.183594 98.804688 169.550781 98.804688 170 Z M 98.804688 170 " fill-opacity="1" fill-rule="nonzero"/>
    <path fill="#231f20" d="M 111.660156 170 C 111.660156 170.449219 112.023438 170.816406 112.472656 170.816406 L 118.902344 170.816406 C 119.351562 170.816406 119.714844 170.449219 119.714844 170 C 119.714844 169.550781 119.351562 169.183594 118.902344 169.183594 L 112.472656 169.183594 C 112.023438 169.183594 111.660156 169.550781 111.660156 170 Z M 111.660156 170 " fill-opacity="1" fill-rule="nonzero"/>
    <path fill="#231f20" d="M 107.417969 48.457031 L 113.84375 48.457031 C 114.296875 48.457031 114.660156 48.09375 114.660156 47.640625 C 114.660156 47.191406 114.296875 46.828125 113.84375 46.828125 L 107.417969 46.828125 C 106.96875 46.828125 106.601562 47.191406 106.601562 47.640625 C 106.601562 48.09375 106.96875 48.457031 107.417969 48.457031 Z M 107.417969 48.457031 " fill-opacity="1" fill-rule="nonzero"/>
    <path fill="#231f20" d="M 68.847656 48.457031 L 75.277344 48.457031 C 75.726562 48.457031 76.089844 48.09375 76.089844 47.640625 C 76.089844 47.191406 75.726562 46.828125 75.277344 46.828125 L 68.847656 46.828125 C 68.398438 46.828125 68.035156 47.191406 68.035156 47.640625 C 68.035156 48.09375 68.398438 48.457031 68.847656 48.457031 Z M 68.847656 48.457031 " fill-opacity="1" fill-rule="nonzero"/>
    <path fill="#231f20" d="M 120.273438 48.457031 L 126.703125 48.457031 C 127.152344 48.457031 127.515625 48.09375 127.515625 47.640625 C 127.515625 47.191406 127.152344 46.828125 126.703125 46.828125 L 120.273438 46.828125 C 119.824219 46.828125 119.460938 47.191406 119.460938 47.640625 C 119.460938 48.09375 119.824219 48.457031 120.273438 48.457031 Z M 120.273438 48.457031 " fill-opacity="1" fill-rule="nonzero"/>
    <path fill="#231f20" d="M 124.515625 170 C 124.515625 170.449219 124.878906 170.816406 125.328125 170.816406 L 131.757812 170.816406 C 132.207031 170.816406 132.574219 170.449219 132.574219 170 C 132.574219 169.550781 132.207031 169.183594 131.757812 169.183594 L 125.328125 169.183594 C 124.878906 169.183594 124.515625 169.550781 124.515625 170 Z M 124.515625 170 " fill-opacity="1" fill-rule="nonzero"/>
    <path fill="#231f20" d="M 73.089844 170 C 73.089844 170.449219 73.457031 170.816406 73.90625 170.816406 L 80.332031 170.816406 C 80.785156 170.816406 81.148438 170.449219 81.148438 170 C 81.148438 169.550781 80.785156 169.183594 80.332031 169.183594 L 73.90625 169.183594 C 73.457031 169.183594 73.089844 169.550781 73.089844 170 Z M 73.089844 170 " fill-opacity="1" fill-rule="nonzero"/>
    <path fill="#231f20" d="M 81.703125 48.457031 L 88.132812 48.457031 C 88.582031 48.457031 88.949219 48.09375 88.949219 47.640625 C 88.949219 47.191406 88.582031 46.828125 88.132812 46.828125 L 81.703125 46.828125 C 81.253906 46.828125 80.890625 47.191406 80.890625 47.640625 C 80.890625 48.09375 81.253906 48.457031 81.703125 48.457031 Z M 81.703125 48.457031 " fill-opacity="1" fill-rule="nonzero"/>
    <path fill="#231f20" d="M 94.5625 48.457031 L 100.988281 48.457031 C 101.4375 48.457031 101.804688 48.09375 101.804688 47.640625 C 101.804688 47.191406 101.4375 46.828125 100.988281 46.828125 L 94.5625 46.828125 C 94.109375 46.828125 93.746094 47.191406 93.746094 47.640625 C 93.746094 48.09375 94.109375 48.457031 94.5625 48.457031 Z M 94.5625 48.457031 " fill-opacity="1" fill-rule="nonzero"/>
    <path fill="#231f20" d="M 133.128906 48.457031 L 139.558594 48.457031 C 140.007812 48.457031 140.371094 48.09375 140.371094 47.640625 C 140.371094 47.191406 140.007812 46.828125 139.558594 46.828125 L 133.128906 46.828125 C 132.679688 46.828125 132.316406 47.191406 132.316406 47.640625 C 132.316406 48.09375 132.679688 48.457031 133.128906 48.457031 Z M 133.128906 48.457031 " fill-opacity="1" fill-rule="nonzero"/>
    <path stroke-linecap="butt" transform="matrix(0.748545, 0.00078515, -0.000785858, 0.749221, 55.62635, 175.99711)" fill="none" stroke-linejoin="miter" d="M 0.000297322 2.000724 L 381.354599 2.00254 " stroke="#000000" stroke-width="4" stroke-opacity="1" stroke-miterlimit="4"/>
</svg>