<svg xmlns="http://www.w3.org/2000/svg"
    xmlns:xlink="http://www.w3.org/1999/xlink" preserveAspectRatio="xMidYMid meet" version="1.0" viewBox="0.0 0.0 400.0 386.3" zoomAndPan="magnify" style="fill: rgb(0, 63, 132);" original_string_length="3977">
    <g id="__id236_sj4my5dzjl">
        <path d="M393.57,373.42h-17.93V120.81c0-3.55-2.88-6.43-6.43-6.43H206.43V6.43c0-3.55-2.88-6.43-6.43-6.43H30.78 c-3.55,0-6.43,2.88-6.43,6.43v366.99H6.43c-3.55,0-6.43,2.88-6.43,6.43c0,3.55,2.88,6.43,6.43,6.43h24.35H200h169.22h24.36 c3.55,0,6.43-2.88,6.43-6.43C400,376.3,397.12,373.42,393.57,373.42z M37.21,12.86h156.36v107.96v252.61H37.21V12.86z M206.43,373.42V127.24h156.36v246.18H206.43z M99.65,302.51H68.93c-3.55,0-6.43,2.88-6.43,6.43v33.09c0,3.55,2.88,6.43,6.43,6.43 h30.72c3.55,0,6.43-2.88,6.43-6.43v-33.09C106.08,305.39,103.2,302.51,99.65,302.51z M93.22,335.6H75.36v-20.23h17.86V335.6z M99.65,37.82H68.93c-3.55,0-6.43,2.88-6.43,6.43v33.09c0,3.55,2.88,6.43,6.43,6.43h30.72c3.55,0,6.43-2.88,6.43-6.43V44.25 C106.08,40.7,103.2,37.82,99.65,37.82z M93.22,70.91H75.36V50.68h17.86V70.91z M161.86,170.17h-30.72c-3.55,0-6.43,2.88-6.43,6.43 v33.09c0,3.55,2.88,6.43,6.43,6.43h30.72c3.55,0,6.43-2.88,6.43-6.43V176.6C168.29,173.05,165.41,170.17,161.86,170.17z M155.43,203.25h-17.86v-20.23h17.86V203.25z M99.65,103.99H68.93c-3.55,0-6.43,2.88-6.43,6.43v33.09c0,3.55,2.88,6.43,6.43,6.43 h30.72c3.55,0,6.43-2.88,6.43-6.43v-33.09C106.08,106.87,103.2,103.99,99.65,103.99z M93.22,137.08H75.36v-20.23h17.86V137.08z M99.65,236.34H68.93c-3.55,0-6.43,2.88-6.43,6.43v33.09c0,3.55,2.88,6.43,6.43,6.43h30.72c3.55,0,6.43-2.88,6.43-6.43v-33.09 C106.08,239.22,103.2,236.34,99.65,236.34z M93.22,269.43H75.36V249.2h17.86V269.43z M99.65,170.17H68.93 c-3.55,0-6.43,2.88-6.43,6.43v33.09c0,3.55,2.88,6.43,6.43,6.43h30.72c3.55,0,6.43-2.88,6.43-6.43V176.6 C106.08,173.05,103.2,170.17,99.65,170.17z M93.22,203.25H75.36v-20.23h17.86V203.25z M161.86,236.34h-30.72 c-3.55,0-6.43,2.88-6.43,6.43v33.09c0,3.55,2.88,6.43,6.43,6.43h30.72c3.55,0,6.43-2.88,6.43-6.43v-33.09 C168.29,239.22,165.41,236.34,161.86,236.34z M155.43,269.43h-17.86V249.2h17.86V269.43z M161.86,103.99h-30.72 c-3.55,0-6.43,2.88-6.43,6.43v33.09c0,3.55,2.88,6.43,6.43,6.43h30.72c3.55,0,6.43-2.88,6.43-6.43v-33.09 C168.29,106.87,165.41,103.99,161.86,103.99z M155.43,137.08h-17.86v-20.23h17.86V137.08z M161.86,37.82h-30.72 c-3.55,0-6.43,2.88-6.43,6.43v33.09c0,3.55,2.88,6.43,6.43,6.43h30.72c3.55,0,6.43-2.88,6.43-6.43V44.25 C168.29,40.7,165.41,37.82,161.86,37.82z M155.43,70.91h-17.86V50.68h17.86V70.91z M161.86,302.51h-30.72 c-3.55,0-6.43,2.88-6.43,6.43v33.09c0,3.55,2.88,6.43,6.43,6.43h30.72c3.55,0,6.43-2.88,6.43-6.43v-33.09 C168.29,305.39,165.41,302.51,161.86,302.51z M155.43,335.6h-17.86v-20.23h17.86V335.6z M331.07,227.36h-30.72 c-3.55,0-6.43,2.88-6.43,6.43v33.09c0,3.55,2.88,6.43,6.43,6.43h30.72c3.55,0,6.43-2.88,6.43-6.43v-33.09 C337.5,230.24,334.62,227.36,331.07,227.36z M324.64,260.45h-17.86v-20.23h17.86V260.45z M331.07,161.19h-30.72 c-3.55,0-6.43,2.88-6.43,6.43v33.09c0,3.55,2.88,6.43,6.43,6.43h30.72c3.55,0,6.43-2.88,6.43-6.43v-33.09 C337.5,164.07,334.62,161.19,331.07,161.19z M324.64,194.27h-17.86v-20.23h17.86V194.27z M331.07,293.53h-30.72 c-3.55,0-6.43,2.88-6.43,6.43v33.09c0,3.55,2.88,6.43,6.43,6.43h30.72c3.55,0,6.43-2.88,6.43-6.43v-33.09 C337.5,296.41,334.62,293.53,331.07,293.53z M324.64,326.62h-17.86v-20.23h17.86V326.62z M268.87,293.53h-30.72 c-3.55,0-6.43,2.88-6.43,6.43v33.09c0,3.55,2.88,6.43,6.43,6.43h30.72c3.55,0,6.43-2.88,6.43-6.43v-33.09 C275.3,296.41,272.42,293.53,268.87,293.53z M262.44,326.62h-17.86v-20.23h17.86V326.62z M268.87,227.36h-30.72 c-3.55,0-6.43,2.88-6.43,6.43v33.09c0,3.55,2.88,6.43,6.43,6.43h30.72c3.55,0,6.43-2.88,6.43-6.43v-33.09 C275.3,230.24,272.42,227.36,268.87,227.36z M262.44,260.45h-17.86v-20.23h17.86V260.45z M268.87,161.19h-30.72 c-3.55,0-6.43,2.88-6.43,6.43v33.09c0,3.55,2.88,6.43,6.43,6.43h30.72c3.55,0,6.43-2.88,6.43-6.43v-33.09 C275.3,164.07,272.42,161.19,268.87,161.19z M262.44,194.27h-17.86v-20.23h17.86V194.27z" style="fill: inherit;"/>
    </g>
</svg>