<svg xmlns="http://www.w3.org/2000/svg"
    xmlns:xlink="http://www.w3.org/1999/xlink" preserveAspectRatio="xMidYMid meet" version="1.0" viewBox="13.6 75.8 228.8 105.8" zoomAndPan="magnify" style="fill: rgb(244, 159, 53);" original_string_length="5309">
    <g id="__id252_s3icop94bl">
        <path d="M 66.097656 113.988281 L 67.699219 112.402344 L 97.023438 83.46875 C 97.027344 83.464844 97.03125 83.460938 97.03125 83.460938 C 97.625 82.878906 98.253906 82.332031 98.917969 81.828125 C 99.597656 81.3125 100.300781 80.832031 101.027344 80.382812 C 102.523438 79.460938 104.089844 78.664062 105.714844 78.003906 C 107.335938 77.335938 109.015625 76.800781 110.722656 76.402344 C 111.554688 76.210938 112.394531 76.0625 113.238281 75.953125 C 114.0625 75.847656 114.890625 75.789062 115.726562 75.789062 L 186.953125 75.789062 C 190.460938 75.789062 193.898438 76.738281 196.90625 78.539062 C 199.914062 80.339844 202.382812 82.921875 204.035156 86.007812 L 218.476562 112.914062 L 229.386719 112.914062 C 232.835938 112.914062 236.144531 114.285156 238.585938 116.722656 C 241.019531 119.164062 242.394531 122.476562 242.394531 125.925781 L 242.304688 167.753906 L 219.394531 167.753906 C 218.269531 170.402344 216.636719 172.839844 214.5625 174.910156 C 210.316406 179.15625 204.554688 181.542969 198.550781 181.542969 C 192.542969 181.542969 186.785156 179.15625 182.535156 174.910156 C 180.460938 172.839844 178.832031 170.402344 177.707031 167.753906 L 86.796875 167.753906 C 85.671875 170.402344 84.042969 172.839844 81.96875 174.910156 C 77.722656 179.15625 71.960938 181.542969 65.953125 181.542969 C 59.953125 181.542969 54.183594 179.15625 49.941406 174.910156 C 47.867188 172.839844 46.238281 170.402344 45.113281 167.753906 L 13.605469 167.753906 L 13.605469 141.855469 C 13.605469 138.351562 14.734375 134.945312 16.828125 132.128906 C 18.917969 129.320312 21.859375 127.261719 25.214844 126.257812 Z M 50.414062 158.898438 C 50.414062 154.777344 52.054688 150.824219 54.96875 147.910156 C 57.882812 144.996094 61.835938 143.355469 65.953125 143.355469 C 70.074219 143.355469 74.027344 144.996094 76.941406 147.910156 C 79.855469 150.824219 81.496094 154.777344 81.496094 158.898438 C 81.496094 163.019531 79.855469 166.976562 76.941406 169.890625 C 74.027344 172.804688 70.074219 174.4375 65.953125 174.4375 C 61.835938 174.4375 57.882812 172.804688 54.96875 169.890625 C 52.054688 166.976562 50.414062 163.019531 50.414062 158.898438 Z M 183.007812 158.898438 C 183.007812 154.777344 184.648438 150.824219 187.558594 147.910156 C 190.472656 144.996094 194.429688 143.355469 198.550781 143.355469 C 202.671875 143.355469 206.628906 144.996094 209.539062 147.910156 C 212.453125 150.824219 214.09375 154.777344 214.09375 158.898438 C 214.09375 163.019531 212.453125 166.976562 209.539062 169.890625 C 206.628906 172.804688 202.671875 174.4375 198.550781 174.4375 C 194.429688 174.4375 190.472656 172.804688 187.558594 169.890625 C 184.648438 166.976562 183.007812 163.019531 183.007812 158.898438 Z M 147.148438 120.019531 L 147.148438 160.648438 L 88.53125 160.648438 C 88.578125 160.066406 88.601562 159.484375 88.601562 158.898438 C 88.601562 152.894531 86.214844 147.132812 81.96875 142.882812 C 77.722656 138.640625 71.960938 136.25 65.953125 136.25 C 59.953125 136.25 54.183594 138.640625 49.941406 142.882812 C 45.695312 147.132812 43.308594 152.894531 43.308594 158.898438 C 43.308594 159.484375 43.332031 160.066406 43.375 160.648438 L 20.710938 160.648438 L 20.710938 141.855469 C 20.710938 139.878906 21.347656 137.957031 22.527344 136.375 C 23.707031 134.792969 25.363281 133.625 27.253906 133.058594 L 70.71875 120.019531 Z M 213.46875 141.859375 C 209.351562 138.257812 204.050781 136.25 198.550781 136.25 C 192.542969 136.25 186.785156 138.640625 182.535156 142.882812 C 178.289062 147.132812 175.902344 152.894531 175.902344 158.898438 C 175.902344 159.484375 175.925781 160.066406 175.96875 160.648438 L 149.515625 160.648438 L 149.515625 120.019531 L 213.46875 120.019531 Z M 215.835938 120.019531 L 229.386719 120.019531 C 230.949219 120.019531 232.449219 120.640625 233.558594 121.75 C 234.664062 122.855469 235.285156 124.355469 235.285156 125.917969 L 235.21875 160.648438 L 221.132812 160.648438 C 221.175781 160.066406 221.199219 159.484375 221.199219 158.898438 C 221.199219 153.523438 219.285156 148.34375 215.835938 144.269531 Z M 130.613281 124.164062 L 141.984375 124.164062 L 141.984375 126.535156 L 130.613281 126.535156 Z M 196.933594 124.164062 L 208.304688 124.164062 L 208.304688 126.535156 L 196.933594 126.535156 Z M 147.148438 82.894531 L 147.148438 112.914062 L 77.300781 112.914062 L 102.011719 88.527344 C 102.394531 88.152344 102.796875 87.804688 103.226562 87.480469 C 103.71875 87.105469 104.222656 86.757812 104.75 86.429688 C 105.921875 85.714844 107.140625 85.09375 108.410156 84.578125 C 109.675781 84.050781 110.984375 83.636719 112.320312 83.328125 C 112.921875 83.183594 113.53125 83.082031 114.144531 83 C 114.675781 82.933594 115.210938 82.894531 115.746094 82.894531 Z M 149.515625 82.894531 L 186.953125 82.894531 C 189.175781 82.894531 191.355469 83.496094 193.257812 84.636719 C 195.164062 85.777344 196.726562 87.410156 197.777344 89.371094 L 210.40625 112.914062 L 149.515625 112.914062 L 149.515625 82.894531" fill-rule="evenodd" style="fill: inherit;"/>
    </g>
</svg>