<svg xmlns="http://www.w3.org/2000/svg"
    xmlns:xlink="http://www.w3.org/1999/xlink" preserveAspectRatio="xMidYMid meet" version="1.0" viewBox="0.0 0.0 687.1 500.0" zoomAndPan="magnify" style="fill: rgb(250, 218, 39);" original_string_length="3129">
    <g id="__id250_s3icop94bl">
        <path d="M 664.886719 447.511719 C 664.886719 457.304688 656.789062 465.28125 646.394531 465.292969 L 343.519531 477.824219 L 40.191406 465.28125 C 30.253906 465.28125 22.160156 457.304688 22.160156 447.511719 L 22.160156 75.199219 C 22.160156 65.363281 30.253906 57.367188 40.191406 57.367188 L 53.429688 57.367188 L 53.429688 434.523438 C 54.207031 442.324219 60.359375 445.121094 65.082031 445.59375 C 66.070312 445.691406 166.4375 440.476562 244.375 440.171875 C 308.027344 440.171875 342.070312 453.515625 343.496094 453.515625 C 344.972656 453.515625 378.992188 440.171875 444.679688 440.171875 C 520.585938 440.476562 620.949219 445.609375 621.933594 445.59375 C 629.308594 445.5 633.363281 440.066406 633.589844 434.523438 L 633.589844 57.363281 L 646.859375 57.363281 C 656.792969 57.363281 664.890625 65.363281 664.890625 75.199219 Z M 314.085938 423.632812 C 296.992188 420.640625 273.289062 418.007812 242.253906 418.007812 C 199.835938 418.175781 150.226562 419.820312 114.011719 421.257812 C 149.65625 410.394531 200.179688 397.753906 242.8125 397.558594 C 275.78125 397.558594 299.128906 410.96875 314.085938 423.632812 Z M 75.601562 64.289062 C 99.902344 54.519531 184.65625 22.171875 242.140625 22.171875 C 298.160156 22.789062 325.105469 47.332031 332.4375 55.375 L 332.4375 410.132812 C 314.605469 393.910156 284.890625 375.394531 242.226562 375.394531 C 181.109375 375.664062 107.023438 399.339844 75.601562 410.445312 Z M 573.113281 421.265625 C 536.628906 419.820312 486.351562 418.171875 442.667969 418.007812 C 412.859375 418.007812 389.875 420.585938 373.113281 423.539062 C 388.128906 410.898438 411.566406 397.558594 444.726562 397.558594 C 487.101562 397.746094 537.515625 410.402344 573.113281 421.265625 Z M 354.601562 55.386719 C 362.027344 47.28125 389.171875 22.789062 446.394531 22.160156 C 502.574219 22.160156 587.140625 54.507812 611.425781 64.289062 L 611.425781 410.445312 C 579.992188 399.339844 505.824219 375.664062 444.21875 375.394531 C 401.941406 375.394531 372.398438 393.878906 354.601562 410.078125 Z M 646.859375 35.203125 L 597.679688 35.203125 C 560.28125 21.363281 494.527344 0.0117188 444.664062 0.0117188 C 389.316406 0.617188 357.84375 22.183594 343.71875 35.203125 L 343.285156 35.203125 C 329.046875 22.1875 297.226562 0.617188 240.652344 0 C 192 0 126.570312 21.363281 89.300781 35.203125 L 40.191406 35.203125 C 18.03125 35.203125 0 53.148438 0 75.199219 L 0 447.507812 C 0 469.519531 18.03125 487.433594 39.710938 487.433594 C 39.734375 487.433594 343.070312 499.984375 343.070312 499.984375 C 343.214844 500 343.371094 500 343.519531 500 C 343.671875 500 343.820312 500 343.980469 499.984375 L 646.859375 487.441406 C 669.011719 487.441406 687.050781 469.527344 687.050781 447.507812 L 687.050781 75.199219 C 687.050781 53.144531 669.011719 35.203125 646.859375 35.203125" style="fill: inherit;"/>
    </g>
</svg>