<svg xmlns="http://www.w3.org/2000/svg"
    xmlns:xlink="http://www.w3.org/1999/xlink" preserveAspectRatio="xMidYMid meet" version="1.0" viewBox="96.7 104.1 231.8 216.9" zoomAndPan="magnify" style="fill: rgb(0, 0, 0);" original_string_length="3694">
    <g id="__id261_s3icop94bl">
        <path d="M298.49,262.445c-16.54,0-29.997-13.456-29.997-29.996s13.457-29.996,29.997-29.996 s29.996,13.456,29.996,29.996S315.03,262.445,298.49,262.445z M298.49,207.453c-13.783,0-24.997,11.213-24.997,24.996 s11.213,24.996,24.997,24.996c13.783,0,24.996-11.213,24.996-24.996S312.272,207.453,298.49,207.453z" style="fill: rgb(230, 55, 58);"/>
    </g>
    <g id="__id262_s3icop94bl">
        <path d="M170.748,243.235c-0.431,0-0.861-0.111-1.248-0.333c-1.176-0.677-29.045-16.88-50.109-42.354 c-0.88-1.064-0.73-2.64,0.333-3.52c1.065-0.879,2.641-0.729,3.52,0.333c18.001,21.77,41.826,36.993,47.501,40.458 c8.939-5.471,62.895-40.191,68.568-84.024c0.315-1.912,0.468-3.749,0.468-5.548c0-18.343-14.924-33.266-33.268-33.266 c-1.381,0-2.5-1.119-2.5-2.5s1.119-2.5,2.5-2.5c21.101,0,38.268,17.166,38.268,38.266c0,2.072-0.176,4.184-0.522,6.277 c-6.463,49.949-69.582,86.832-72.265,88.377C171.609,243.124,171.178,243.235,170.748,243.235z" style="fill: rgb(230, 55, 58);"/>
    </g>
    <g id="__id263_s3icop94bl">
        <path d="M114.15,191.949c-0.799,0-1.584-0.382-2.068-1.092c-8.31-12.19-13.31-24.443-14.861-36.419 c-0.332-1.997-0.507-4.109-0.507-6.19c0-21.1,17.166-38.266,38.266-38.266c1.381,0,2.5,1.119,2.5,2.5s-1.119,2.5-2.5,2.5 c-18.343,0-33.266,14.923-33.266,33.266c0,1.809,0.152,3.646,0.453,5.461c1.462,11.276,6.184,22.797,14.047,34.332 c0.777,1.141,0.483,2.696-0.658,3.474C115.125,191.808,114.635,191.949,114.15,191.949z" style="fill: rgb(230, 55, 58);"/>
    </g>
    <g id="__id264_s3icop94bl">
        <path d="M142.015,121.971c-4.915,0-8.914-3.999-8.914-8.914s3.999-8.914,8.914-8.914s8.914,3.999,8.914,8.914 S146.93,121.971,142.015,121.971z M142.015,109.144c-2.158,0-3.914,1.756-3.914,3.914c0,2.158,1.756,3.914,3.914,3.914 c2.158,0,3.914-1.756,3.914-3.914C145.929,110.899,144.173,109.144,142.015,109.144z" style="fill: rgb(230, 55, 58);"/>
    </g>
    <g id="__id265_s3icop94bl">
        <path d="M199.11,121.971c-4.915,0-8.914-3.999-8.914-8.914s3.999-8.914,8.914-8.914 c4.916,0,8.915,3.999,8.915,8.914S204.026,121.971,199.11,121.971z M199.11,109.144c-2.158,0-3.914,1.756-3.914,3.914 c0,2.158,1.756,3.914,3.914,3.914c2.159,0,3.915-1.756,3.915-3.914C203.025,110.899,201.269,109.144,199.11,109.144z" style="fill: rgb(230, 55, 58);"/>
    </g>
    <g id="__id266_s3icop94bl">
        <path d="M234.982,321.057c-36.796,0-66.732-29.936-66.732-66.732v-13.359c0-1.381,1.119-2.5,2.5-2.5 s2.5,1.119,2.5,2.5v13.359c0,34.04,27.693,61.732,61.732,61.732c34.038,0,61.73-27.693,61.73-61.732v-13.359 c0-1.381,1.119-2.5,2.5-2.5s2.5,1.119,2.5,2.5v13.359C301.712,291.121,271.777,321.057,234.982,321.057z" style="fill: rgb(230, 55, 58);"/>
    </g>
    <g id="__id267_s3icop94bl">
        <path d="M297.865,243.465c-6.22,0-11.281-5.061-11.281-11.28c0-6.221,5.061-11.281,11.281-11.281 c6.219,0,11.279,5.061,11.279,11.281C309.144,238.404,304.084,243.465,297.865,243.465z M297.865,225.903 c-3.463,0-6.281,2.818-6.281,6.281c0,3.463,2.817,6.28,6.281,6.28c3.462,0,6.279-2.817,6.279-6.28 C304.144,228.721,301.327,225.903,297.865,225.903z" style="fill: rgb(230, 55, 58);"/>
    </g>
    <g id="__id268_s3icop94bl">
        <path d="M147.441,207.453c-0.003,0-0.006,0-0.009,0c-1.027-0.003-1.947-0.635-2.32-1.592l-9.015-23.118 l-4.349,8.636c-0.425,0.843-1.289,1.375-2.233,1.375H99.214c-1.381,0-2.5-1.119-2.5-2.5s1.119-2.5,2.5-2.5h28.761l6.18-12.271 c0.444-0.881,1.374-1.419,2.351-1.373c0.986,0.046,1.853,0.669,2.211,1.589l8.747,22.432l11.566-29.063 c0.379-0.952,1.3-1.576,2.323-1.576c0.007,0,0.014,0,0.021,0c1.031,0.008,1.951,0.649,2.317,1.613l7.347,19.371l21.744-0.001 c1.38,0,2.5,1.119,2.5,2.5c0,1.38-1.119,2.5-2.5,2.5l-23.469,0.001c-1.039,0-1.969-0.642-2.337-1.613l-5.677-14.969 l-11.533,28.981C149.385,206.829,148.464,207.453,147.441,207.453z" style="fill: rgb(230, 55, 58);"/>
    </g>
</svg>