<svg xmlns="http://www.w3.org/2000/svg"
    xmlns:xlink="http://www.w3.org/1999/xlink" preserveAspectRatio="xMidYMid meet" version="1.0" viewBox="0.0 0.0 126.0 117.3" zoomAndPan="magnify" style="fill: rgb(49, 108, 172);" original_string_length="3232">
    <g id="__id234_sj4my5dzjl">
        <path d="M125.435,61.959l-2.869-1.385V38.151c0-0.382-0.218-0.731-0.562-0.899c-2.168-1.057-4.344-1.794-6.525-2.226V15.091 c0-0.552-0.448-1-1-1H75.692c-0.552,0-1,0.448-1,1v9.503c-5.507,1.953-9.469,7.2-9.469,13.369v2.29H58.19c-0.552,0-1,0.448-1,1 v7.716l-1.936-0.935L53.824,5.666c-0.018-0.539-0.46-0.966-1-0.966h-6.937c-0.539,0-0.981,0.427-1,0.966l-1.241,36.765 l-0.878-0.424c-0.309-0.149-0.674-0.129-0.966,0.053c-0.292,0.183-0.468,0.503-0.468,0.847v18.359l-3.304-1.595l-5.179-58.76 C32.805,0.396,32.373,0,31.854,0h-7.448c-0.518,0-0.951,0.396-0.996,0.912l-4.37,49.593L1.435,42.007 c-0.309-0.149-0.673-0.129-0.966,0.053C0.177,42.244,0,42.563,0,42.908v73.424c0,0.553,0.448,1,1,1h25.743h15.59h41.333H125 c0.552,0,1-0.447,1-1V62.86C126,62.476,125.78,62.126,125.435,61.959z M120.566,59.609l-19.246-9.29V38.783 c6.389-2.94,12.857-2.94,19.246,0V59.609z M108.413,34.714c-2.851,0.315-5.699,1.157-8.531,2.538 c-0.344,0.168-0.562,0.517-0.562,0.899v2.102h-5.708v-2.29c0-7.028-5.139-12.864-11.854-13.985v-3.054h26.654V34.714z M93.612,42.253h5.708v2h-5.708V42.253z M93.612,46.253h5.708v3.101l-5.708-2.755V46.253z M76.692,16.091h36.788v18.623 c-1.022-0.113-2.044-0.154-3.067-0.13v-14.66c0-0.552-0.448-1-1-1H80.759c-0.552,0-1,0.448-1,1v3.862 c-0.114-0.003-0.226-0.017-0.341-0.017c-0.933,0-1.843,0.096-2.726,0.269V16.091z M67.223,37.963c0-5.366,3.488-9.924,8.313-11.55 c0.053,0.009,0.1,0.031,0.156,0.031c0.265,0,0.502-0.107,0.681-0.275c0.975-0.252,1.992-0.4,3.045-0.4 c6.724,0,12.194,5.471,12.194,12.195v7.67l-7.511-3.626c-0.309-0.149-0.673-0.129-0.966,0.053 c-0.292,0.183-0.468,0.503-0.468,0.847v18.359l-15.443-7.455V37.963z M65.223,52.847l-1.771-0.855v-5.739h1.771V52.847z M59.19,42.253h6.033v2h-2.771c-0.552,0-1,0.448-1,1v5.774l-2.262-1.092V42.253z M46.854,6.7h5.003l1.363,40.353l-7.604-3.671 L46.854,6.7z M25.322,2h5.617l4.994,56.66l-14.967-7.225L25.322,2z M41.333,115.332h-13.59V99.964h13.59V115.332z M124,115.332 H83.667H43.333V98.964c0-0.553-0.448-1-1-1h-15.59c-0.552,0-1,0.447-1,1v16.367H2V44.501L41.899,63.76 c0.31,0.15,0.675,0.13,0.966-0.054c0.292-0.183,0.468-0.503,0.468-0.847V44.501l0.84,0.406c0,0,0.001,0,0.001,0L83.232,63.76 c0.31,0.15,0.675,0.13,0.966-0.054c0.292-0.183,0.468-0.503,0.468-0.847V44.501L124,63.488V115.332z" style="fill: inherit;"/>
        <path d="M18.634,71.625H6.346c-0.552,0-1,0.447-1,1v12.288c0,0.553,0.448,1,1,1h12.288c0.552,0,1-0.447,1-1V72.625 C19.634,72.073,19.186,71.625,18.634,71.625z M17.634,83.914H7.346V73.625h10.288V83.914z" style="fill: inherit;"/>
        <path d="M51.625,73.785c-0.552,0-1,0.447-1,1v19.521c0,0.553,0.448,1,1,1h64.082c0.552,0,1-0.447,1-1V74.785c0-0.553-0.448-1-1-1 H51.625z M84.667,85.545h14.232v7.761H84.667V85.545z M82.667,93.306H68.435v-7.761h14.231V93.306z M84.667,83.545v-7.761h14.232 v7.761H84.667z M82.667,83.545H68.435v-7.761h14.231V83.545z M66.435,75.785v7.761h-13.81v-7.761H66.435z M52.625,85.545h13.81 v7.761h-13.81V85.545z M100.898,93.306v-7.761h13.809v7.761H100.898z M114.708,83.545h-13.809v-7.761h13.809V83.545z" style="fill: inherit;"/>
    </g>
</svg>