<svg xmlns="http://www.w3.org/2000/svg" xmlns:xlink="http://www.w3.org/1999/xlink" preserveAspectRatio="xMidYMid meet" version="1.0" viewBox="0.0 0.0 400.6 386.9" zoomAndPan="magnify" style="fill: rgb(250, 218, 39);" original_string_length="3120"><g id="__id141_sobnr7rmrg"><path d="M32.31,34.68v-0.55c0-3.55,2.88-6.43,6.43-6.43s6.43,2.88,6.43,6.43v0.55c0,3.55-2.88,6.43-6.43,6.43 S32.31,38.23,32.31,34.68z M66.61,40.55c3.55,0,6.43-2.88,6.43-6.43v-0.55c0-3.55-2.88-6.43-6.43-6.43c-3.55,0-6.43,2.88-6.43,6.43 v0.55C60.18,37.67,63.06,40.55,66.61,40.55z M94.48,40.55c3.55,0,6.43-2.88,6.43-6.43v-0.55c0-3.55-2.88-6.43-6.43-6.43 s-6.43,2.88-6.43,6.43v0.55C88.05,37.67,90.93,40.55,94.48,40.55z M398.12,352.02l-32.38,32.37c-2.51,2.51-6.58,2.51-9.09,0 l-32.72-32.72l-25.57,25.57c-2.51,2.51-6.58,2.51-9.09,0c-0.79-0.79-1.33-1.73-1.62-2.72l-19.23-63.48H6.43 c-3.55,0-6.43-2.88-6.43-6.43V6.43C0,2.88,2.88,0,6.43,0h351.67c3.55,0,6.43,2.88,6.43,6.43v55.74c0,0,0,0,0,0s0,0,0,0v204.58 l23.76,7.2c3.4,1.02,5.32,4.61,4.29,8.01c-0.33,1.09-0.92,2.02-1.68,2.76l-25.5,25.5l32.73,32.72 C400.63,345.44,400.63,349.51,398.12,352.02z M12.86,12.86v42.88h338.81V12.86H12.86z M264.53,298.18l-12.87-42.48l-46.73,0 c-3.55,0-6.43-2.88-6.43-6.43v-34.03c0-3.55,2.88-6.43,6.43-6.43h108.71c3.55,0,6.43,2.88,6.43,6.43v34.03 c0,1.37-0.53,2.58-1.26,3.62l32.85,9.95V68.6H12.86v229.59H264.53z M255.43,233.7L255.43,233.7l30.2,9.15h21.58v-21.18h-95.86v21.18 h36.41l-0.35-1.14c-0.22-0.72-0.26-1.48-0.21-2.26c0.02-0.24,0.06-0.46,0.1-0.7c0.04-0.25,0.03-0.51,0.11-0.76 c0.06-0.21,0.21-0.35,0.29-0.55c0.17-0.41,0.37-0.78,0.61-1.14c0.23-0.34,0.47-0.65,0.76-0.93c0.29-0.29,0.59-0.53,0.93-0.76 c0.37-0.25,0.73-0.45,1.14-0.61c0.2-0.08,0.34-0.23,0.55-0.29c0.25-0.08,0.51-0.07,0.76-0.11c0.24-0.04,0.46-0.09,0.7-0.1 C253.95,233.44,254.71,233.48,255.43,233.7z M384.48,347.48l-32.72-32.72c-2.51-2.51-2.51-6.58,0-9.09l22.53-22.53l-91.66-27.77 c0,0,0,0-0.01,0l-16.22-4.92l-3.19-0.97l33.65,111.08l22.53-22.53c2.51-2.51,6.58-2.51,9.09,0l32.72,32.72L384.48,347.48z M175.43,135.84v113.44c0,3.55-2.88,6.43-6.43,6.43H61.23c-3.55,0-6.43-2.88-6.43-6.43V135.84c0-3.55,2.88-6.43,6.43-6.43h20.99 v-6.33c0-9.05,3.7-17.28,9.66-23.24c5.96-5.96,14.19-9.66,23.24-9.66c9.05,0,17.28,3.7,23.24,9.66c5.96,5.96,9.66,14.19,9.66,23.24 v6.33H169C172.55,129.41,175.43,132.29,175.43,135.84z M95.08,129.41h40.08v-6.33c0-5.5-2.26-10.52-5.89-14.15 c-3.63-3.63-8.65-5.89-14.15-5.89c-5.51,0-10.52,2.26-14.15,5.89c-3.63,3.63-5.89,8.65-5.89,14.15V129.41z M162.57,142.27h-14.56 v14.37c0,3.55-2.88,6.43-6.43,6.43c-3.55,0-6.43-2.88-6.43-6.43v-14.37H95.08v14.37h0c0,3.55-2.88,6.43-6.43,6.43 s-6.43-2.88-6.43-6.43v-14.37H67.66v100.58h94.91V142.27z M204.93,142.27h108.71c3.55,0,6.43-2.88,6.43-6.43 c0-3.55-2.88-6.43-6.43-6.43H204.93c-3.55,0-6.43,2.88-6.43,6.43C198.5,139.39,201.38,142.27,204.93,142.27z M204.93,165.85h108.71 c3.55,0,6.43-2.88,6.43-6.43c0-3.55-2.88-6.43-6.43-6.43H204.93c-3.55,0-6.43,2.88-6.43,6.43 C198.5,162.97,201.38,165.85,204.93,165.85z M204.93,189.43h75.63c3.55,0,6.43-2.88,6.43-6.43c0-3.55-2.88-6.43-6.43-6.43h-75.63 c-3.55,0-6.43,2.88-6.43,6.43C198.5,186.55,201.38,189.43,204.93,189.43z" style="fill: inherit;"/></g></svg>