<svg xmlns="http://www.w3.org/2000/svg" xmlns:xlink="http://www.w3.org/1999/xlink" preserveAspectRatio="xMidYMid meet" version="1.0" viewBox="0.0 0.0 370.0 400.0" zoomAndPan="magnify" style="fill: rgb(49, 108, 172);" original_string_length="5113"><g id="__id143_sobnr7rmrg"><path d="M362.64,146.42l-0.03-0.03c-4.57-4.57-10.88-7.41-17.8-7.41H246l-3.07-17.54c-0.02-0.1-0.01-0.22,0.03-0.33 c0.05-0.14,0.13-0.27,0.24-0.37l37.2-35.53c2.42-2.3,3.78-5.16,4.21-8.11c0.3-2.11,0.1-4.27-0.55-6.3 c-0.64-1.99-1.72-3.83-3.16-5.36v-0.02c-2.01-2.11-4.75-3.64-8.06-4.12l-51.35-7.31c-0.29-0.04-0.56-0.15-0.78-0.31 c-0.17-0.12-0.3-0.26-0.38-0.4L197.34,7.67c-1.44-2.86-3.62-4.92-6.12-6.18C189.25,0.5,187.11,0,185.01,0 c-2.11,0-4.25,0.5-6.21,1.48c-2.5,1.26-4.69,3.32-6.12,6.18L149.7,53.28c-0.07,0.14-0.2,0.28-0.36,0.39 c-0.22,0.16-0.5,0.27-0.79,0.33l-51.34,7.3c-3.3,0.47-6.04,2-8.04,4.12c-1.46,1.54-2.54,3.39-3.18,5.37 c-0.66,2.03-0.86,4.2-0.55,6.31c0.42,2.92,1.77,5.76,4.18,8.08l37.2,35.53c0.12,0.11,0.21,0.26,0.26,0.41 c0.03,0.11,0.05,0.22,0.03,0.32l-3.07,17.54c-20.98,0-98.8,0-98.8,0c-6.94,0-13.25,2.8-17.83,7.37c-4.54,4.53-7.36,10.81-7.38,17.84 L0,164.22v210.54c0,6.93,2.84,13.23,7.41,17.8l0.03,0.03c4.57,4.57,10.87,7.41,17.8,7.41v-0.03l87.07,0V400h232.5 c6.92,0,13.23-2.84,17.8-7.41h0.03c4.57-4.57,7.41-10.88,7.41-17.82V164.22C370.05,157.3,367.21,150.99,362.64,146.42z M97.98,75.69 c-0.16-0.16-0.25-0.31-0.27-0.45c-0.02-0.12-0.01-0.24,0.02-0.34c0.04-0.13,0.12-0.27,0.23-0.38h0.02c0.2-0.21,0.5-0.37,0.87-0.42 l51.48-7.31c2.17-0.33,4.23-1.18,5.99-2.44c1.8-1.28,3.3-3,4.34-5.05l22.97-45.67c0.11-0.23,0.31-0.41,0.54-0.52 c0.22-0.11,0.51-0.17,0.82-0.17c0.32,0,0.61,0.06,0.83,0.17c0.23,0.11,0.43,0.29,0.54,0.52l22.99,45.64v0.02 c1.04,2.05,2.54,3.77,4.35,5.06c1.76,1.25,3.82,2.09,6.02,2.43l51.44,7.31c0.38,0.05,0.68,0.21,0.89,0.42 c0.12,0.12,0.2,0.26,0.24,0.39c0.03,0.09,0.04,0.21,0.02,0.34c-0.02,0.12-0.11,0.26-0.28,0.43l-37.2,35.53 c-1.69,1.62-2.93,3.59-3.63,5.73v0.02c-0.71,2.15-0.88,4.49-0.47,6.82l3.68,21.01c-0.02,0.21-0.03,0.43-0.03,0.65 c0,0.99,0.23,1.93,0.63,2.77l4.5,25.71c0.02,0.14,0,0.28-0.05,0.38v0.03c-0.07,0.14-0.21,0.29-0.37,0.41 c-0.2,0.15-0.46,0.26-0.73,0.3c-0.35,0.06-0.74,0.01-1.11-0.18l-45.98-23.68c-2.01-1.03-4.17-1.54-6.27-1.54 c-2.13,0-4.29,0.52-6.28,1.54l-45.98,23.68c-0.37,0.19-0.75,0.24-1.09,0.18c-0.28-0.05-0.53-0.15-0.73-0.3 c-0.15-0.11-0.29-0.26-0.38-0.43c-0.05-0.11-0.07-0.26-0.05-0.42l4.49-25.63c0.42-0.85,0.66-1.81,0.66-2.82 c0-0.24-0.01-0.47-0.04-0.7l3.67-20.96c0.42-2.33,0.23-4.66-0.47-6.81v-0.02c-0.71-2.14-1.93-4.11-3.6-5.72L97.98,75.69z M357.15,374.76c0,3.38-1.39,6.47-3.62,8.72c-2.24,2.23-5.33,3.62-8.72,3.62h-232.5v0.03l-87.07,0v-0.03c-3.4,0-6.49-1.39-8.72-3.61 c-2.23-2.24-3.61-5.33-3.61-8.72V164.22h-0.03c0.02-3.46,1.4-6.54,3.6-8.75c2.23-2.23,5.33-3.59,8.76-3.59h96.54l-3.45,19.73 c-0.56,3.21,0,6.22,1.32,8.78v0.03c1,1.94,2.46,3.61,4.21,4.88c1.7,1.24,3.69,2.11,5.77,2.47c2.77,0.48,5.77,0.12,8.61-1.34 l45.98-23.68c0.22-0.12,0.5-0.17,0.8-0.17c0.31,0,0.59,0.06,0.81,0.17l45.96,23.68c2.85,1.47,5.85,1.83,8.63,1.34 c2.09-0.37,4.07-1.23,5.78-2.48c1.73-1.26,3.19-2.93,4.2-4.88c1.32-2.57,1.88-5.6,1.31-8.82l-3.45-19.7h96.55 c3.4,0,6.48,1.39,8.72,3.61c2.23,2.24,3.61,5.33,3.61,8.72V374.76z M323.23,312.59c0,3.56-2.89,6.45-6.45,6.45H53.26 c-3.56,0-6.45-2.89-6.45-6.45s2.89-6.45,6.45-6.45h263.52C320.34,306.14,323.23,309.03,323.23,312.59z M323.23,342.69 c0,3.56-2.89,6.45-6.45,6.45H53.26c-3.56,0-6.45-2.89-6.45-6.45s2.89-6.45,6.45-6.45h263.52 C320.34,336.24,323.23,339.13,323.23,342.69z M46.82,246.77v25.61c0,3.27,1.35,6.26,3.51,8.42l0.03,0.03 c2.16,2.16,5.15,3.51,8.42,3.51h76.43c3.29,0,6.29-1.35,8.44-3.51c2.16-2.16,3.51-5.16,3.51-8.45v-51.22c0-3.26-1.34-6.25-3.52-8.43 l-0.03-0.03c-2.17-2.15-5.15-3.49-8.41-3.49H58.77l0,0c-3.29,0-6.28,1.34-8.45,3.51c-2.16,2.16-3.51,5.15-3.51,8.44V246.77 C46.82,246.76,46.82,246.76,46.82,246.77C46.82,246.76,46.82,246.76,46.82,246.77z M59.72,253.21c4.84,0,11.42,0,16.26,0v18.21 H59.72V253.21z M105.08,271.43h-16.2v-24.58c0-0.03,0-0.06,0-0.08s0-0.06,0-0.08V222.1h16.2V271.43z M117.98,271.43v-18.22h16.27 v18.22H117.98z M134.25,240.31c-4.84,0-11.43,0-16.27,0V222.1h16.27V240.31z M75.98,222.1v18.21H59.72V222.1H75.98z M323.23,215.66 c0,3.56-2.89,6.45-6.45,6.45H256.1c-3.56,0-6.45-2.89-6.45-6.45s2.89-6.45,6.45-6.45h60.68 C320.34,209.21,323.23,212.1,323.23,215.66z M323.23,245.76c0,3.56-2.89,6.45-6.45,6.45H256.1c-3.56,0-6.45-2.89-6.45-6.45 s2.89-6.45,6.45-6.45h60.68C320.34,239.31,323.23,242.2,323.23,245.76z M246.79,35.15c-2.63-2.39-2.82-6.47-0.43-9.09l13.4-14.72 c2.39-2.63,6.47-2.82,9.09-0.43c2.63,2.39,2.82,6.47,0.43,9.09l-13.4,14.72C253.5,37.35,249.42,37.54,246.79,35.15z M288.27,107.58 l14.94,5.69c3.32,1.26,4.99,4.99,3.73,8.31c-1.26,3.32-4.99,4.99-8.31,3.73l-14.94-5.69c-3.32-1.26-4.99-4.99-3.73-8.31 C281.22,107.98,284.95,106.31,288.27,107.58z M100.76,20c-2.39-2.63-2.2-6.7,0.43-9.09c2.63-2.39,6.7-2.2,9.09,0.43l13.4,14.72 c2.39,2.63,2.2,6.7-0.43,9.09c-2.63,2.39-6.7,2.2-9.09-0.43L100.76,20z M63.11,121.58c-1.26-3.32,0.4-7.05,3.73-8.31l14.94-5.69 c3.32-1.26,7.05,0.4,8.31,3.73c1.26,3.32-0.4,7.05-3.73,8.31l-14.94,5.69C68.1,126.57,64.38,124.9,63.11,121.58z" style="fill: inherit;"/></g></svg>